<?xml version="1.0" encoding="utf-8"?>
<!-- Generator: Adobe Illustrator 25.0.1, SVG Export Plug-In . SVG Version: 6.00 Build 0)  -->
<svg version="1.1" id="Capa_1" xmlns="http://www.w3.org/2000/svg" xmlns:xlink="http://www.w3.org/1999/xlink" x="0px" y="0px"
	 viewBox="0 0 1417.3 1417.3" style="enable-background:new 0 0 1417.3 1417.3;" xml:space="preserve">
<style type="text/css">
	.st0{fill:#FFFFFF;}
</style>
<g>
	<path class="st0" d="M1289.2,368.5c14.9-0.7,29.2,1.4,43.2,7.1c22.5,9.2,37.9,31.5,39,55.7c0.9,20.5-4.4,39.5-13.8,57.2
		c-30.1,56.8-76.2,93.2-139.8,106c-14.2,2.9-28.4,1.3-41.9-3.7c-11.7-4.3-22.5-3.4-33.5,2.1c-24.8,12.3-50.7,21.7-78.3,25.8
		c-29.3,4.3-58.3,1.2-86.8-5.2c-32.4-7.3-62.8-1.3-92.7,10.9c-3.8,1.6-7.5,3.8-11.5,4.5c-2.6,0.5-6.3-0.2-8.2-1.9
		c-1-1,0.1-5.3,1.3-7.5c1.6-2.8,4.2-5.2,6.6-7.5c28.5-26.5,62-40.8,101-39.5c23.5,0.8,46.3-3.3,68.9-7.8
		c22.9-4.6,43.2-14.6,58.6-33.4c8.6-10.5,14-22,16.6-35.2c7.8-39.8,29.3-70.4,63.1-92.6c25.7-17,53.8-28.4,84.1-33.6
		C1273.1,368.5,1281.2,368.9,1289.2,368.5z"/>
	<path class="st0" d="M690.9,410.2c-0.3,37.6-13.8,68.8-43.1,92.9c-10.6,8.7-11.5,12.8-6,25.5c10.6,24.6,21.4,49.1,32.2,73.7
		c5.8,13.2,2,19.7-12.3,20.6c-13.6,0.9-27.3,1.7-40.9,2.5c-13.9,0.8-20.6-3.1-25.7-16.1c-7.5-18.9-14.3-38.1-21.7-57.1
		c-1.8-4.8-4.1-9.5-7-13.7c-4-5.9-9.6-7-14.3-1.7c-4.6,5.1-9.6,11.6-10.4,18c-2.1,17.6-2.2,35.5-2.8,53.2
		c-0.5,13.7-3.7,17.5-17.5,17.8c-13.7,0.3-27.3,0.3-41,0c-14.3-0.4-19-5.7-18.2-19.8c3-54,6.2-108,9.2-162c2-36.5,3.8-73,5.9-109.4
		c0.7-11.9,4.9-16.8,16.5-17.3c35.5-1.3,71.1-3.4,106.6-2.4c42.9,1.3,80.1,33.8,88.8,74.6C690.5,396.2,690.3,403.3,690.9,410.2z
		 M570.4,386.2c-0.2,0.7-0.3,1.3-0.5,2c-3.9,0-7.7-0.3-11.6,0.1c-5.5,0.5-9.6,3.6-9.9,9.1c-0.9,17.5-1.5,34.9-1.8,52.4
		c-0.1,5.2,2.7,9.7,8.5,10.3c13.6,1.5,26.8,0.6,38.8-6.9c22.2-13.8,22.6-46.6,0.2-60C587.4,389.1,578.4,388.4,570.4,386.2z"/>
	<path class="st0" d="M268.7,632.9c-9.8,0-19.6,0-29.4,0c-17.3-0.1-21.5-4.3-20.4-21.9c1.3-22.6,3.3-45.3,4.6-67.9
		c3.2-55.3,6.2-110.7,9.1-166c0.6-10.6,0.1-21.2,0.6-31.7c0.6-12.2,5.9-17.6,17.7-18.1c29.1-1.2,58.2-2,87.3-3.2
		c50.4-2.1,99.8,31.8,109,94.2c6.9,46.6,0.5,91.4-18.2,133.8c-20.7,47.2-58.5,73.5-110,78.7c-16.6,1.7-33.4,1.9-50.2,2.8
		C268.8,633.4,268.8,633.2,268.7,632.9z M371.2,466.9c1.9-13.1-2.6-27.9-7.6-42.6c-3.6-10.3-11-16.3-21.5-17.5
		c-8.1-1-16.5-0.6-24.7-0.4c-7,0.2-10.9,4.3-11.3,11.3c-2.1,40.9-4.4,81.8-6.1,122.7c-0.6,12.7,5.1,17.1,17.9,15.2
		c17.7-2.6,31.1-11.6,40.2-27C368.9,510.2,371,490.2,371.2,466.9z"/>
	<path class="st0" d="M765.1,681.2c6.7,0,13.4-0.2,20.1,0c11.1,0.3,15.5,5.1,14.6,16.1c-2,25.9-4.2,51.9-6.2,77.8
		c-2.1,27.8-4.3,55.5-6.1,83.3c-2.2,34.4-4.1,68.9-6.2,103.4c-0.8,12.5-3.7,14.8-16.4,14.7c-10.6,0-21.1,0.7-31.7,1.2
		c-7.5,0.3-13-2.7-18.5-7.9c-10.2-9.7-16.2-21.5-21.2-34.5c-9.3-24.6-19.2-48.9-29.4-73.1c-1.9-4.6-6.3-8.1-9.6-12.1
		c-1.6,4.9-4.4,9.7-4.7,14.7c-2.1,34-3.7,68-5.3,102c-0.7,16.1-5.3,21-21.5,21.8c-11.1,0.5-22.1,1.3-33.2,1.2
		c-13.3-0.2-17.8-5.6-17-19.1c2.8-48.4,5.2-96.8,8.4-145.1c2.3-34.7,5.7-69.3,8.5-104c0.6-7.2,0.2-14.4,0.5-21.7
		c0.4-9,4.3-13.6,13.2-14c14.2-0.6,28.4-0.3,42.5-0.5c10.3-0.1,15.8,5.3,19.4,14.5c8,20.7,16.2,41.3,24.8,61.7
		c5.1,12.1,10.9,23.9,16.5,35.8c1.4,3,3,6.2,5.2,8.5c1.9,2,4.9,3,7.4,4.5c1.3-2.6,3.7-5.2,3.9-7.8c0.9-17,1.1-34,2.1-51
		c1.2-20,2.9-40.1,4.9-60c0.7-6.8,5.7-10.2,12.5-10.4c7.5-0.2,15,0,22.4,0C765.1,681.3,765.1,681.3,765.1,681.2z"/>
	<path class="st0" d="M95.3,1000.1c-6.9,0-19.1,0.4-31.1-0.1c-13.1-0.6-18.2-5.7-18.3-18.9c-0.1-12.3,0.7-24.7,1.4-37.1
		c1.9-31.9,3.8-63.8,5.9-95.6c2.9-44.7,5.9-89.4,9.1-134.2c0.8-11.1,5.1-15,16.3-15.5c27.5-1.2,55.1-2.7,82.6-2.9
		c50.8-0.3,90.2,29.5,104.6,78.1c9.8,33.1,8.8,66.5,3.8,100.3c-5.3,35.9-20.9,65.9-47.3,90.6c-20.8,19.5-46,29-73.9,31.6
		C132.4,997.8,116.5,998.7,95.3,1000.1z M124.5,900.5c0,1.7-0.1,5.1,0,8.4c0.3,12.9,5.3,17.6,18,15.3c23.4-4.3,41.2-16.5,49.5-39.5
		c8.3-22.8,9.1-46.6,4.1-70.2c-5.7-27.1-23.2-41.5-48.2-41.4c-12,0-15.4,2.6-16.2,14.6C129.2,824.8,127,861.8,124.5,900.5z"/>
	<path class="st0" d="M469.2,991.5c-20.4,0-40.7,0.1-61.1,0c-16-0.1-20.8-4.4-20.3-20.1c0.7-21.6,2.2-43.2,3.4-64.8
		c1.3-23.9,2.9-47.8,4.1-71.7c1.2-25.2,0.9-50.6,3.5-75.6c1.8-17.7,4.7-35.1,3.1-53c-0.9-9.9,3.9-14.5,13.9-15.9
		c1.8-0.2,3.6-0.4,5.4-0.4c40.7-0.5,81.4-1.1,122.1-1.5c3.3,0,6.7,0.3,10,0.8c6.6,1,10.2,5.1,10,11.7c-0.5,16-1,32-2.3,47.9
		c-1,11.1-6.1,15.2-17.5,15.3c-18.3,0.2-36.6,0-54.9,0.2c-13.8,0.1-18,4.6-18,19c-0.1,15.7,4.2,20.8,18,20.9
		c8.7,0,17.5-0.9,26.2-1.3c3.1-0.2,6.2-0.4,9.3-0.3c17.2,0.4,21.7,5.9,20,23c-0.9,9.5-0.5,19.1-0.9,28.6
		c-0.6,12.4-4.6,17.7-16.8,19.1c-14.3,1.6-28.8,1.9-43.2,2.4c-15.8,0.6-19.5,4-19.7,19.8c-0.3,20.3,1,21.7,20.9,21.8
		c16.5,0.1,33,0,49.5,0.1c15.5,0.1,19.2,4,18.7,19.2c-0.3,11.3-0.2,22.7-0.3,34c-0.1,16.6-4.4,20.9-21.2,21
		C510.4,991.5,489.8,991.5,469.2,991.5z"/>
	<path class="st0" d="M1088.2,980.9c-21.7,0-43.3,0.1-65,0c-15.1-0.1-20.1-4.9-20.1-20c0-10.6,0.9-21.1,1.5-31.7
		c2.4-44.5,4.7-89.1,7.2-133.6c1.9-33.4,4-66.9,6.2-100.3c0.7-10.4,5.8-15.1,16.5-15.5c35.6-1.1,71.1-2.1,106.7-3.2
		c7.7-0.2,15.4-1.2,23.2-1.2c10.2-0.1,15,4.4,14.9,14.5c-0.2,14.7-0.7,29.4-1.7,44c-0.8,11.1-6.5,16-17.7,16.4
		c-18.8,0.6-37.6,1.1-56.4,1.6c-14.3,0.4-18.4,4.5-18.7,18.6c-0.5,20.3,0.6,21.5,21,21.3c12.1-0.1,24.2-0.5,36.4-0.5
		c13,0,17.2,4.5,17.1,17.2c-0.1,11.4,0,22.7-0.3,34.1c-0.4,13.8-5.9,19.1-19.6,19.3c-14.4,0.1-28.9-0.1-43.3,0.1
		c-12.9,0.2-17.1,4.6-17.3,17.4c-0.1,4.4-0.1,8.8,0,13.2c0.3,10.5,3.5,14.1,14,14.1c18.3,0,36.6-0.7,54.9-0.8
		c14.1-0.1,18.5,3.8,18.6,17.6c0.1,12.9-0.6,25.8-1.9,38.6c-1.1,10.8-6.6,15.6-17.4,15.8c-19.6,0.3-39.2,0.1-58.8,0.1
		C1088.1,978.8,1088.1,979.9,1088.2,980.9z"/>
	<path class="st0" d="M1304.7,672.2c24.1-1,47,5.5,67,21c11.4,8.8,12.9,14.9,5.7,27.1c-6.2,10.6-12.7,21.3-20.4,30.8
		c-8.2,10.2-14.5,10.6-25.6,3.5c-12.2-7.7-24.7-13.8-39.8-12.6c-10.6,0.9-18.4,5.8-21.1,14.2c-3.1,9.8,2.1,16.6,9.1,21.9
		c4.8,3.6,10.6,6.3,16.3,8.6c14.3,5.9,29.1,10.6,43.1,17c29.8,13.7,46,46.6,44.3,79.4c-3.7,72.1-78.2,105.6-132.5,94.3
		c-20.7-4.3-40.1-11.6-58.2-22.3c-12.6-7.5-14.3-15.8-5.4-27.3c8-10.4,16.5-20.5,24.7-30.8c4.6-5.8,10.3-7.5,17.1-4.3
		c4.2,2,8.4,3.9,12.5,6.1c13.7,7.5,28.4,9,43.6,7.1c7.5-0.9,15.3-2.6,18-11c3-9,1.6-17.7-5.8-24.1c-5.2-4.5-11.2-8.2-17.4-11.1
		c-9.1-4.2-18.7-7.4-28.1-11c-45.8-17.8-62.2-60.4-48.5-106.5C1216.8,697,1252,671.9,1304.7,672.2z"/>
	<path class="st0" d="M879.9,682.2c31.4-1.3,62.8-2.5,94.2-3.7c4.1-0.2,8.3-0.3,12.4-0.1c9.4,0.5,13.8,5.1,13.1,14.4
		c-1.2,15.4-2.6,30.8-4.4,46.1c-1.3,11.2-6.7,15.7-18,16c-8,0.2-16-0.1-24,0.2c-10,0.4-14.7,4.7-15.3,14.8
		c-1.8,30.1-3.4,60.2-4.9,90.3c-1.7,33.4-3,66.9-4.7,100.4c-0.4,9-4,12.5-13,12.9c-12.1,0.6-24.2,1.3-36.3,1.3
		c-15.8,0.1-21.8-5.4-21.7-21.3c0.2-24.5,0.6-49,2.1-73.4c2.1-33.4,5.4-66.8,7.9-100.2c1.6-21.2-0.7-23.3-21.6-23.4
		c-6.7,0-13.4,0.2-20.1-0.2c-9.2-0.5-14-5-13.9-14.2c0.1-16,0.7-32,1.6-47.9c0.5-8.4,5.9-12.7,15.4-12.8c17-0.3,34-0.1,51.1-0.1
		C879.9,681.6,879.9,681.9,879.9,682.2z"/>
	<path class="st0" d="M320.7,994c-7,0-14,0.5-20.9-0.1c-10.3-1-14.5-6.4-13.8-16.7c1.9-27.5,4.1-55,5.7-82.5
		c1.7-29.3,2.5-58.7,4.2-88c1.8-31.6,3.9-63.3,6.3-94.9c1.1-15.2,6.6-20.1,21.5-20.5c11.3-0.3,22.7-0.3,34,0
		c12.6,0.4,16.9,4.9,16.3,17.3c-2.2,41.4-4.8,82.8-7.2,124.2c-0.7,11.8-1,23.7-1.6,35.5c-1.6,29.6-3.2,59.1-4.9,88.7
		c-0.4,7.2-0.9,14.4-1.8,21.6c-1.2,9.6-5.8,14.5-15.4,15.3C335.7,994.5,328.2,994,320.7,994C320.7,994,320.7,994,320.7,994z"/>
</g>
</svg>
