<?xml version="1.0" encoding="utf-8"?>
<!-- Generator: Adobe Illustrator 25.0.1, SVG Export Plug-In . SVG Version: 6.00 Build 0)  -->
<svg version="1.1" id="Capa_2" xmlns="http://www.w3.org/2000/svg" xmlns:xlink="http://www.w3.org/1999/xlink" x="0px" y="0px"
	 viewBox="0 0 1417.3 1417.3" style="enable-background:new 0 0 1417.3 1417.3;" xml:space="preserve">
<style type="text/css">
	.st0{fill:#FFFFFF;}
</style>
<g>
	<path class="st0" d="M677.3,753.1c-14.9,6.8-30.4,9.1-46.4,3.1c-16.2-6-24-20-30.5-35c-1-0.6-2-1.2-2.9-1.8
		c-0.6,1.8-0.8,3.9-1.9,5.3c-16.9,20-36.3,36.2-62.4,43.3c-42.6,11.5-64.2-20.5-62.9-52.7c1-24.8,14.3-44.5,29-63.3
		c4.6-5.9,9.7-11.5,15.8-18.6c-3.8,0-5.7-0.2-7.6,0c-23.6,3.4-47.2,7.1-70.9,10.1c-6.9,0.9-8.9,3.3-7.8,10.3
		c7.3,46.5,14.5,92.9,31.6,137c2.1,5.5,0.5,8.7-3.9,11.2c-13.6,7.7-28.7,9.9-43.9,9.4c-9.3-0.3-14.1-8.4-15.7-16.9
		c-4.8-24.2-9.1-48.5-13.2-72.9c-3.2-19.4-5.8-38.9-8.4-58.4c-0.8-5.7-2.5-7.8-8.8-6.1c-54.5,14.2-109,28-163.6,42
		c-30.8,7.9-61.5,16.5-92.5,23.7c-12.6,2.9-25.8,3.7-38.7,4c-5.9,0.1-12.9-2.2-17.5-5.9c-9.7-7.8-8.6-20.4,1.9-31.3
		c3.6-3.7,8.1-7,12.6-9.5c38-20.6,79-33.6,120.2-45.8c0.6-0.2,1.4,0.3,3.6,0.8c-24.1,12.6-47,24.6-69.9,36.7
		c-4.7,2.5-9.4,5-13.6,8.2c-2,1.5-2.8,4.5-4.1,6.8c2.8,1,5.7,3.2,8.3,2.9c9.7-1.1,19.5-2.6,29.1-4.9c20.9-4.9,41.7-10.3,62.5-15.7
		c25.2-6.6,50.2-13.6,75.4-20.1c25.7-6.6,51.5-12.9,77.2-19.1c12.3-2.9,12.6-2.7,11.5-15.6c-3.6-41.8-7.1-83.6-11.4-125.3
		c-0.9-8.8-5.3-17.2-8.8-28c6-2.7,13.6-7.8,22-9.8c18.5-4.5,37.4-7.4,56.2-11c19.8-3.8,39.7-7.4,59.4-11.4
		c7.2-1.4,12.6-5.3,15.7-12.2c3-6.7,6-7.4,9.6-0.9c9,16.1,17.8,32.5,25.2,49.4c4.2,9.8,6.3,20.8,7.8,31.5
		c1.6,11.1-4.3,16.5-15.6,17.3c-33.9,2.4-67.7,5.1-101.6,7.4c-5.7,0.4-7.3,2.7-7,8c1.3,25.9,2.4,51.9,3.5,77.8
		c0.2,5.5,2.8,6.4,7.8,5.5c28.7-5.3,57.4-11,86.3-15.2c26-3.8,52.2-6.3,78.3-8.7c8.3-0.8,16.9,0.6,25.4,1.6c2.6,0.3,5,2.3,7.4,3.5
		c-1.9,2.3-3.4,5.2-5.7,6.9c-13.4,9.5-27.9,17.5-40.2,28.1c-27.4,23.7-47.4,52.8-58,87.8c-1.7,5.5-2,11.5-2.1,17.3
		c-0.1,9.2,6.1,13.1,13.5,7.7c9.7-7.2,19.1-15.3,27-24.5c15.8-18.3,25.6-40.2,33.3-63c1.7-5,3.3-10,4.8-15.1
		c3.8-13.7,15.5-18.9,26.5-24.6c6.3-3.3,13-6,19.9-7.9c11-3.2,16.7,1.7,15,13.1c-2.6,18.1-6.8,36.1-8.4,54.3
		c-1.3,15.4-0.7,31.2,0.7,46.7c1.1,11.9,7.9,21.2,19,26.8c1.4,0.7,2.7,1.6,4,2.5C678,751,677.7,752,677.3,753.1z"/>
	<path class="st0" d="M533.7,967.3c4.8,8.7,8.1,16.2,12.6,22.7c19.3,27.9,46,47.6,74.8,64.5c58.9,34.5,122.4,51.5,190.6,44.8
		c52.1-5.1,100.9-20.4,141.5-55.5c33.9-29.3,53.8-67.1,64.8-110.1c9.7-37.7,12.5-76,9.5-114.6c-1.5-19.8-5.7-39.3-8.5-59
		c-0.4-3,0.6-6.1,0.9-9.2c1.4-0.2,2.8-0.3,4.2-0.5c2.3,7.5,5.2,15,6.9,22.6c10.2,44.8,15.5,90.1,11.2,136
		c-5.8,62.4-27.7,117.7-74.4,161.1c-27.4,25.5-59.6,43.4-95.4,54.2c-40.1,12.1-81.3,16.8-123,12.7c-69.4-6.8-134.4-27.9-193.4-65.6
		c-37.8-24.2-67.6-56-82.6-99.1c-6.2-17.9-8.5-37.1-12.3-55.8c-1.1-5.4,1.8-6.5,6.6-4.9c51.3,17.7,104.2,23,157.9,18.8
		c79.2-6.3,154.3-27.6,225.2-64.1c61.1-31.5,111-75.8,153.8-129c2.5-3.1,6.5-5,9.8-7.4c-0.8,3.9-1.1,8.1-2.6,11.6
		c-11.1,24.8-27.8,45.7-45.9,65.6c-36.4,40-78.6,72.8-126,98.9c-35,19.3-72,33.5-110.8,43.5c-39.5,10.2-79.6,16.3-120.3,17.9
		c-22.5,0.9-45-0.4-67.5-0.6C539.8,966.9,538.2,967.1,533.7,967.3z"/>
	<path class="st0" d="M723.3,569.6c9.8-6.9,18-13.1,26.6-18.6c15.3-9.7,31-18.5,49.6-20.2c20.2-1.9,28.4,9.8,32.5,24.9
		c4.5,16.9,4.1,17.1-12.9,20.7c-25.9,5.5-49.6,15.6-69.9,32.7c-10,8.4-15.9,19.2-13.5,32.9c2,11.6,10.2,16.8,20.5,19.6
		c21,5.6,42.2,10.6,63.1,16.8c26.5,7.9,36.7,31.9,25.3,57.6c-9.7-7.9-19-16.6-29.4-23.4c-8.2-5.4-17.8-8.8-27-12.6
		c-7.1-3-14.3-5.7-21.7-7.9c-8.6-2.6-17.4-4.6-26.2-6.5c-4.5-1-5.9,2.2-4.8,5.8c2.7,9.4,5.8,18.7,9.6,30.4
		c-8.4,3.6-19,8.9-30.1,12.4c-9,2.8-18.7,4-28.2,4.8c-13.2,1.1-17.6-5.2-16.9-18.4c1.3-27.3,2.9-54.6,1.8-81.8
		c-1.4-34.7-4.4-69.4-8.5-103.8c-5-41.4-13.3-82.3-26.2-122.1c-2.2-6.8-4.6-13.5-7.6-20c-2.3-5-0.5-8.5,3.5-10.8
		c13.7-8,28.9-10.7,44.4-10.8c7.6,0,12.7,6.9,14.7,14c3.8,13.8,7.4,27.7,9.8,41.8c6.9,40.8,13.2,81.8,19.6,122.7
		C722.1,555.9,722.5,561.9,723.3,569.6z"/>
	<path class="st0" d="M801,437.7c6.8-2.6,13.4-6,20.5-7.8c12.3-3.1,24.8-5.7,37.4-7.6c19.9-3,32.7,5.8,35.9,25.8
		c6.5,40.9,12.2,81.9,18.3,122.8c0.3,2,1.1,3.8,1.7,5.8c2.1-0.8,4.5-1.2,6.2-2.5c18.9-13.8,40-22.7,63.3-23.3
		c10.9-0.3,22.8,2.8,32.8,7.5c13.6,6.3,18.3,19.1,16.6,34c-2.8,24.2-14.9,44.1-30,62.2c-23.4,28-49.6,53.1-81.4,71.7
		c-10.8,6.3-22.2,11.5-35.2,11c-12.7-0.4-19.6-7.2-20.1-19.9c-2.2-54.1-6.9-108.1-18.2-161.1c-6.4-30-15.8-59.4-24.5-88.8
		c-3.2-10.8-9.1-20.4-20.6-24.9c-1.3-0.5-2.4-1.2-3.6-1.8C800.4,439.8,800.7,438.7,801,437.7z M926.3,693.3c1.8-0.3,2.8-0.1,3.3-0.5
		c25.9-21.4,39.6-48.9,39-82.5c-0.3-16.8-12.8-26.5-27.5-22c-7.7,2.3-14.7,7.2-21.5,11.6c-1.8,1.2-2.9,5.1-2.7,7.6
		c2.5,26.2,5.3,52.3,8.1,78.5C925.2,688.3,925.8,690.7,926.3,693.3z"/>
	<path class="st0" d="M1374,557.9c-1.9,19.4-8.6,38.8-20.3,56.3c-25.6,38-59.2,65.2-105.4,73.4c-13.2,2.3-26.9,2.5-40.3,1.8
		c-12.2-0.6-21.2-8-25.9-19.5c-7.8-19.2-5.8-38.7,2.6-56.5c13-27.4,28.5-53.4,53.3-72.4c25.6-19.7,54.7-30.7,86.7-32.3
		C1353.2,507.2,1371.6,524.9,1374,557.9z M1313.1,555.7c0.3-7.3,0.1-14.2-7.5-17.9c-7.4-3.5-13.2,0.9-19,4.4c-0.9,0.5-1.7,1.3-2.5,2
		c-28.2,25.6-43.6,57.6-47.6,95.1c-0.9,8-1.6,17.6,6.6,22.2c9.2,5.2,17-1,23.4-7C1295.2,628,1309.4,594.3,1313.1,555.7z"/>
	<path class="st0" d="M1071.5,711.1c-2.2,0-6,0.4-9.6-0.1c-6.6-0.9-9.3-5.9-7.2-12.1c11.4-33.4,16.6-68,18.1-103.1
		c0.8-19-8.1-28.7-27.1-32.2c-2.7-0.5-5.2-2.8-7.7-4.2c1.5-2.3,2.6-5.3,4.6-6.9c18.4-14.7,44.2-15.8,60.4-2.7
		c3.3,2.6,6.5,5.7,8.5,9.3c3.6,6.2,5.4,3.8,9.2,0c13.6-13.7,26.9-27.9,41.8-40c12-9.6,26.7-15,42.6-16c22.1-1.4,27.7,12.5,21.8,30.3
		c-2.4,7.3-8,13.6-12.9,19.9c-3.5,4.5-8.4,6-13,1.2c-9.1-9.4-19.2-9.6-30.6-4.8c-20.4,8.6-33.8,24.3-44,43.1
		c-1.3,2.3-1.2,5.6-1.1,8.5c1.4,28.8,3,57.7,4.4,86.5c0.4,8.2-4.8,13.4-11.7,15.2c-12.8,3.3-25.9,5.1-38.9,7.5
		C1077.3,710.9,1075.1,710.8,1071.5,711.1z"/>
</g>
</svg>
