<?xml version="1.0" encoding="utf-8"?>
<!-- Generator: Adobe Illustrator 25.0.1, SVG Export Plug-In . SVG Version: 6.00 Build 0)  -->
<svg version="1.1" id="Capa_2" xmlns="http://www.w3.org/2000/svg" xmlns:xlink="http://www.w3.org/1999/xlink" x="0px" y="0px"
	 viewBox="0 0 1417.3 1417.3" style="enable-background:new 0 0 1417.3 1417.3;" xml:space="preserve">
<style type="text/css">
	.st0{fill:#FFFFFF;}
</style>
<g>
	<path class="st0" d="M436,833.6c-2.1,3.9-3.7,6.8-5.3,9.7c-2.2,0.5-4.7,1.2-7.1,1.7c-3.1,0.6-4.4-1.5-5.2-4c-1.1-3.5-4-4.4-7.1-4.6
		c-3-0.2-4.8,1.4-6.1,4.3c2.9-0.3,5.6-1.3,7.7-0.5c2,0.8,3.6,3.3,4.7,5.4c1.5,2.7-0.8,6.5-4.3,8.2c-3.6,1.7-6.8,0.5-9.5-3.7
		c-4.4,0.7-8.4,1.3-13.1-1.7c-3.5-2.2-7.7-4.4-11.7-6.1c-3.5-1.5-7.6-1.3-11.9-2c-0.9,4-3.1,7.8-8,8.5c-2.1,0.3-4.6,0.1-6.4-0.8
		c-5.7-2.9-11.1-6.3-16.7-9.5c-2.1-1.2-4.1-1.8-5.5,0.3c5.5,4.5,10.9,8.8,16.2,13.1c-0.2,0.4-0.5,0.9-0.7,1.3
		c-2.5-1.3-5.1-2.5-7.4-4c-2.3-1.5-4.2-3.4-6.7-5.5c-1.5,3.7-2.4,6.6-3.7,9.2c-1.9,3.9-5.2,5-9.5,4.5c-3.5-0.4-7-0.1-10.5,0
		c-5.8,0.2-11.8,1.8-16-4.3c-0.6-0.8-1.9-1.1-2.9-1.6c0.1-1.6,0.3-3,0.3-3.5c-3.1-1.7-6.9-2.5-7.7-4.5c-1.6-3.7,3-4.5,5.1-6.4
		c5.9-5.3,6.2-10.7,0.4-16.5c-4.6-4.7-4.6-4.8,0.6-8.9c3.7-2.9,4.9-7.2,2.9-11.7c-0.9-2-2.5-3.7-3.7-5.7c-0.8-1.2-2.3-3.3-1.9-3.8
		c3.3-4,1.7-9,3.2-13.3c0.5-1.5,2.4-3,3.9-3.5c3.4-1.2,6.9-1.8,10.5-2.4c5.6-0.9,7-3.6,4.4-8.6c-0.6-1.2-1-2.6-2-5.1
		c2.9,0.4,4.6,0.6,6.4,0.9c6.2,1.1,9.5-0.7,12.5-6.3c1-1.8,2.7-3.2,4.5-5.2c-0.7-0.8-1.9-1.9-2.7-3.3c-1.5-2.3-3.5-4.7-1.4-7.8
		c0.2-0.3,0.4-0.7,0.4-1.1c0.1-2-0.5-4.9,0.5-5.7c1.9-1.5,4.8-2,7.3-2.6c2.2-0.5,4.6-0.2,6.7-0.8c2.7-0.9,5.8-1.9,7.7-3.8
		c2.8-2.7,5.4-4.6,9.4-4.3c3.3,0.3,5.6-1.5,7.8-3.8c2-2.1,4.6-3.9,7.3-4.9c3.1-1.2,4.5-3.1,4.7-6.3c0.2-2.1,0.4-4.2,0.9-6.2
		c1.5-6.1,5.4-9.6,11.7-9.5c5.5,0.1,8.7-2.7,11.6-6.8c4-5.7,9-10.8,12-16.9c2.9-5.8,7.7-8.4,12.3-12c2.6-2,4.1-5.3,6.3-7.9
		c2.1-2.4,4.2-4.7,6.6-6.7c2.7-2.3,6.1-4,8.3-6.7c5.1-6.2,12.3-10.7,15.7-18.4c1.7-3.8,4.8-2.8,6.7-0.6c2.6-1.8,4.9-3.3,7.1-5
		c1.1-0.9,2.5-2,2.9-3.3c1.4-4.6,4.7-7.3,8.7-9.2c4.6-2.2,6.9-5.8,9-10.4c6.1-13.4,12.6-26.7,19.3-39.8c2.4-4.7,6.7-7.9,12.4-7.4
		c11.5,1,17.3-5.9,21.9-14.8c1.6-3.2,2.9-6.6,4.4-9.9c3-7,8.4-11.7,15.3-14.4c19.1-7.4,36.8-17.6,55-26.9c2-1,4.6-0.8,7.3-1.2
		c-0.8-2.9,1.8-4.4,4.5-6.5c6.4-5.1,12.1-10.9,18.3-16.2c4.1-3.6,8.3-7.2,12.7-10.4c4-3,8.7-4.1,13.8-4.6c13.6-1.3,26-5.4,36.5-15
		c14.9-13.6,33.2-17.3,52.4-13.4c10.2,2.1,20.1,4.9,30.7,4.7c2.8-0.1,6.6,1.8,8.5,3.9c5.3,6.2,13.2,6.2,19.7,9.4
		c2,1,4.3,1.3,6.4,2.1c5.2,2,10.2,3.7,16,1.8c1.8-0.6,4.7,0.2,6.3,1.4c3,2.2,6,4.8,8.2,7.8c4,5.5,9.2,8.5,15.8,10.1
		c10.3,2.4,20.4,5.6,30.6,8.5c6.7,1.9,11.7,5.8,14.5,12.5c1,2.3,3.5,4.7,5.9,5.6c7.6,2.8,13.5,8.1,19.7,12.7
		c2.2,1.6,4.1,4.1,5.4,6.5c1.8,3.5,3.7,3.2,6.2,1c0.7-0.6,1.4-1.4,2.1-1.9c3.3-2.1,7.2-0.8,7.7,3.2c0.4,2.8,1.8,3.5,3.9,4.8
		c6.3,3.9,10.2,10,13,16.6c0.5,1.2-1.3,4.5-2.8,5.2c-4.9,2.2-9,7-15.6,4.7c-1.9-0.6-4.8,1.7-7.9,2.9c-1.2,3.5-3.2,7.2-9.1,5.3
		c-1-0.3-2.7,1.6-4,2.6c-2.7,2-5.1,4.7-8,6c-6.9,3-14.1,5-21,7.9c-8.7,3.6-17,8.1-25.7,11.7c-29.1,12-58.3,23.6-87.4,35.6
		c-46.1,19-92.2,37.9-136.8,60.2c-25.6,12.8-48,30.3-68.9,49.8c-26.8,24.8-50,52.8-72,81.8c-0.3,0.5-0.6,1-1,1.4
		c-8,8.5-13.6,18.7-20.4,28.1c-4.7,6.4-10.2,11.7-17.1,15.5c-3.2,1.8-6.3,2.4-9.8,0.8c-8.8-4-15.6,0.2-22.1,5.5
		c-2.6,2.2-4.9,4.8-7.6,6.9c-3.8,2.9-6.5,1.7-8.9-2.4C442.4,839.6,439.4,837.2,436,833.6z M678.8,512.9c1.2,2.6,3.1,3.5,5.5,2.9
		c0.2-0.5,0.3-1,0.5-1.5C682.8,513.9,680.8,513.4,678.8,512.9c-0.8-2.4-1.5-4.9-2.3-7.4c-0.5,0.2-1,0.4-1.6,0.6
		C674.2,509.4,676.2,511.3,678.8,512.9z M297,853c2.8,3.4,3.2,3.8,7.7,2.2c5.1-1.8,9.8-3.2,15.1-0.3c3.1,1.7,5.8-0.9,6.5-3.6
		c0.7-2.4-0.2-5.2-0.4-7.8c-2.4,0.6-5.5,0.6-7,2.1c-2.6,2.6-5.2,4.1-8.8,4.3c-1.5,0.1-2.8,1-4.3,1.3C302.7,852,299.6,852.5,297,853z
		 M443.3,809.5c-2.6-1.7-4.2-3.2-6-3.7c-0.7-0.2-2,2-3,3c1.6,1.3,3.1,2.9,4.9,3.8C439.7,812.8,441.1,811.1,443.3,809.5z
		 M659.2,535.8c-3.3-2.1-5.9-3.7-9.7-6.1c0.6,2.4,0.4,4.7,1.5,5.7C653.2,537.4,656,537.6,659.2,535.8z M296,785
		c0.4-0.4,0.9-0.7,1.3-1.1c-0.2-2.5-0.9-5-3.8-5.9c-1-0.3-2.3,0.5-3.5,0.7c0.3,1,0.4,2.3,1,2.9C292.6,782.9,294.4,783.9,296,785z
		 M925.5,483.2c2.8-2.1,4.9-3.7,7.8-5.8c-2.6-1.8-4.3-2.9-5.7-3.9C926.8,476.8,926.3,479.4,925.5,483.2z M707.3,454.7
		c4.5,4.5,4.8,4.6,8.2,3.6C711.7,453.4,711.3,453.2,707.3,454.7z M876.7,547.7c-0.1,0.5-0.2,1.1-0.3,1.6c1.3,0.5,2.6,1,4.8,1.8
		c-2.3,0.9-3.6,1.4-4.9,1.9c0.2,0.6,0.4,1.1,0.6,1.7c1.6-0.6,3.5-0.8,4.7-1.8c0.6-0.5,0.2-3.1-0.6-3.8
		C880,548.1,878.2,548.1,876.7,547.7z M486,790.4c-3-1.2-4.7,0.2-5.7,2.7c-0.2,0.6,0.6,1.5,0.9,2.3c1.6-1.1,3.2-2.1,4.7-3.2
		C486.2,792,486,791.2,486,790.4z M884,533.1c4.8-3.7,4.8-5.3,0.4-8.2C884.3,527.6,884.2,530.1,884,533.1z M420.2,712.7
		c1.2-2.1,2.4-3.3,2.2-4.1c-0.3-1.1-1.7-2-2.6-3c-0.7,0.8-1.9,1.6-1.9,2.3C418.1,709.3,419.1,710.4,420.2,712.7z M784.5,475.1
		c6.6,0.3,6.6,0.3,7.4-4.2C789.1,472.4,786.8,473.7,784.5,475.1z M397.3,772.6c1-1.5,2-2.5,2.2-3.6c0.1-0.6-1.2-1.5-1.8-2.2
		c-0.9,1-2.1,1.8-2.5,2.9C394.9,770.2,396.2,771.3,397.3,772.6z M904.5,455.1c-2.7,1.7-4.7,2.8-7.5,4.5
		C901.8,461,904,460.3,904.5,455.1z M350,732.5c1-1.3,2-2.4,1.9-2.5c-0.8-1-1.9-1.9-3-2.5c-0.2-0.1-1.8,1.4-1.7,1.6
		C347.8,730.1,348.8,731.1,350,732.5z M426.6,820.8c0.4,0.5,0.7,1,1.1,1.6c1.3-1,2.6-2,4.8-3.6C428.3,817,427,818.2,426.6,820.8z
		 M838.9,543.2c-1.1,1.4-2,2.3-2.5,3.3c-0.1,0.2,1.4,1.6,1.8,1.4c0.9-0.3,1.8-1.2,2.2-2C840.7,545.5,839.7,544.6,838.9,543.2z
		 M950.7,490.7c-4.8,2.3-4.8,2.3-2.4,6.2C949.1,494.7,949.8,493,950.7,490.7z M630.1,622.8c-0.2-0.5-0.4-1.1-0.7-1.6
		c-1.8,0.7-3.7,1.4-5.5,2.2c0.2,0.6,0.5,1.2,0.7,1.8C626.4,624.3,628.2,623.5,630.1,622.8z M902.8,541c0.5,2.5,0.9,5,1.4,7.5
		C906,545.7,905.9,543.1,902.8,541z M586,585.8c0.2,0.8,0.4,1.5,0.6,2.3c1.6-0.5,3.2-0.9,4.8-1.4c-0.2-0.6-0.3-1.3-0.5-1.9
		C589.3,585.2,587.6,585.5,586,585.8z M930.8,531.9c-0.5-0.6-1-1.2-1.4-1.8c-1.6,1.5-3.2,3-4.9,4.5c0.3,0.4,0.6,0.8,1,1.1
		C927.2,534.5,929,533.2,930.8,531.9z M420.9,659.9c4.1,1.3,4.1,1.3,5.6-2.2C424.2,658.6,422.5,659.3,420.9,659.9z M633.7,494
		c0.6-1.3,1.4-2.1,1.3-2.7c-0.2-0.7-1.2-1.5-1.9-1.6c-0.5-0.1-1.7,1.2-1.6,1.5C631.8,492.1,632.7,492.7,633.7,494z M465.9,827.1
		c-1.2-0.9-1.8-1.6-2.5-1.8c-0.4-0.1-1.6,0.9-1.5,1.1c0.2,0.8,0.7,1.8,1.4,2C463.7,828.6,464.6,827.8,465.9,827.1z M885,478.3
		c-0.3,0.7-0.5,1.4-0.8,2.2c1.3,0.4,2.5,0.8,3.8,1.2c0.2-0.6,0.4-1.1,0.6-1.7C887.4,479.4,886.2,478.9,885,478.3z M350.2,828.3
		c-1.2-0.8-1.9-1.7-2.6-1.6c-0.6,0-1.2,1.1-1.7,1.6c0.6,0.6,1.2,1.5,1.9,1.6C348.3,830,349.1,829.1,350.2,828.3z M544.9,549.5
		c1.1-0.9,2.1-1.4,2.2-2c0.1-0.5-0.8-1.8-1.3-1.8c-0.7,0-1.7,0.7-2,1.3C543.6,547.5,544.4,548.4,544.9,549.5z M777.7,432.9
		c0.6,0.4,1.2,0.7,1.8,1.1c0.6-1.3,1.1-2.5,1.7-3.8c-0.5-0.2-1-0.5-1.5-0.7C779.1,430.6,778.4,431.7,777.7,432.9z M831.8,478.6
		c-0.2-0.6-0.4-1.2-0.6-1.7c-1.5,0.7-2.9,1.3-4.4,2c0.3,0.6,0.5,1.1,0.8,1.7C829,479.9,830.4,479.2,831.8,478.6z M440,757
		c-1.2-0.7-1.9-1.4-2.6-1.5c-0.4,0-1,0.9-1.4,1.4c0.6,0.5,1.2,1.3,1.9,1.5C438.2,758.6,438.9,757.8,440,757z M549.8,685.2
		c0.8-0.1,1.6-0.2,2.4-0.3c-0.3-1.1-0.6-2.3-1-3.4c0-0.1-1.4,0.1-1.4,0.3C549.7,682.9,549.8,684,549.8,685.2z M871.7,450.9
		c0.8,0.7,1.5,1.4,2.3,2c0.7-1.1,1.5-2.2,2.2-3.2c-0.5-0.5-1.1-1-1.6-1.4C873.7,449.2,872.7,450.1,871.7,450.9z M943,521.1
		c-0.2,0.4-0.4,0.8-0.5,1.3c0.3,0.4,0.7,1.2,0.9,1.2c0.8-0.2,1.6-0.7,2.4-1.1C944.8,522,943.9,521.5,943,521.1z M976.7,515.9
		c-1.1-0.9-1.6-1.6-2.4-1.8c-0.4-0.1-1.1,0.7-1.6,1.1c0.5,0.6,1,1.5,1.7,1.8C974.7,517.1,975.5,516.4,976.7,515.9z M440.4,719.2
		c-0.3-0.5-0.6-0.9-0.9-1.4c-0.6-0.2-1.3-0.8-1.7-0.6c-0.6,0.2-1.2,1-1.2,1.6c0,0.5,0.8,1.4,1.2,1.4
		C438.7,720.1,439.6,719.5,440.4,719.2z M514.7,575.9c0.5-1.4,0.9-2.2,1-2.9c0-0.3-0.7-0.7-1-1.1c-0.5,0.6-1.2,1.2-1.5,1.9
		C513,574.1,513.8,574.7,514.7,575.9z M359.3,769.1c-0.3,0.5-0.6,1-0.9,1.5c1,0.5,2,1,3,1.5c0.2-0.4,0.5-0.8,0.7-1.2
		C361.2,770.4,360.3,769.7,359.3,769.1z M670.7,500c-1-0.5-1.7-1.2-2.1-1c-0.5,0.2-1.1,1.1-1,1.6c0.1,0.5,1,1.2,1.4,1.2
		C669.5,501.7,669.9,500.9,670.7,500z M878,466.1c-1.5-0.6-2.2-1.2-2.8-1.2c-0.5,0-1.3,0.8-1.3,1.2c0.1,0.6,0.6,1.3,1.2,1.6
		C875.5,467.9,876.1,467.2,878,466.1z M331.6,814.5c-0.9-0.8-1.4-1.6-1.9-1.5c-0.6,0-1.1,0.7-1.7,1.1c0.4,0.5,0.7,1.3,1.2,1.4
		C329.8,815.5,330.5,815,331.6,814.5z M914.4,476.5c-0.9-0.7-1.4-1.5-1.9-1.4c-0.5,0-1.3,0.9-1.3,1.4c0,0.5,0.8,1.3,1.3,1.4
		C912.9,477.9,913.5,477.2,914.4,476.5z M866,544.7c-0.6,1.3-1,1.9-1,2.5c0,0.4,0.7,0.7,1.1,1.1c0.5-0.5,1.2-0.9,1.3-1.4
		C867.4,546.4,866.7,545.9,866,544.7z M693.5,603.8c-0.3,1.4-0.7,2.1-0.6,2.6c0.1,0.4,0.7,0.8,1,1.2c0.4-0.5,1.1-1,1.1-1.5
		C695.1,605.5,694.4,605,693.5,603.8z M708.1,624.9c1,0.7,1.5,1.5,1.9,1.4c0.5-0.1,1-0.8,1.3-1.4c0.1-0.2-0.6-1-0.9-1
		C709.8,624,709.3,624.4,708.1,624.9z M358.2,823.7c-0.1,0.5-0.3,0.9-0.4,1.4c1.1,0.3,2.2,0.7,3.4,1c0.1-0.5,0.3-1,0.4-1.5
		C360.5,824.3,359.3,824,358.2,823.7z"/>
	<path class="st0" d="M702.2,388.7c-0.9-3.7,1.2-4.7,3.4-5.6c12.4-5.2,24.7-10.6,37.3-15.3c17.7-6.6,35.4-13.5,53.6-18.7
		c15.2-4.3,30.6-8.7,46.8-8.4c10.2,0.2,20.5,0.1,30.7,0c15.1-0.2,29,4.6,43,9.3c11.8,4,21.9,12.6,34.7,13.7
		c10.1,0.9,20.4,0.5,30.5,0.6c1.5,0,3-0.9,4.5-0.7c11.7,1.4,21.3-4,31.1-8.9c15.6-7.8,31.3-15.4,46.7-23.4c9.6-5,18.8-10.5,28.2-16
		c16-9.4,31.9-19.1,47.9-28.4c18.5-10.7,37.2-21.1,55.9-31.6c0.4-0.2,0.8-0.7,0.7-1.8c-6.4,3-12.8,6-19.5,9.1c-1.2-3.7,0.9-5,3.1-6
		c8.2-3.9,16.4-7.9,24.8-11.3c8.6-3.5,17.2-7.4,26.1-9.3c11.9-2.4,24.1-2.5,35.8,2.3c1.6,0.6,3.2,1.4,4.8,1.7
		c11.7,2.2,11.6,6.8,11.6,16.1c-0.1,10.6-5.4,18.6-14.6,24.2c-26.8,16.3-55.4,29-84,41.5c-32.7,14.2-65.4,28.2-97.9,42.7
		c-12.6,5.6-24.7,12.3-36.7,19.2c-9.7,5.6-16.6,14.2-21.6,24.3c-2.7,5.4-2.4,10.5,0.6,15.7c6.7,11.5,13.2,23.2,15.6,36.4
		c4.5,23.9,1.5,35.9-15.4,51.2c-16.9,15.3-37,24.8-57.9,33.1c-31.7,12.6-63.2,25.8-94.7,38.7c-27.9,11.4-55.7,23-83.6,34.2
		c-24.9,10.1-50.2,19.4-74.9,29.8c-27.6,11.6-54.2,25.4-78.9,42.6c-21.7,15-40.4,33.1-57.7,52.9c-25.7,29.5-49,60.8-72.3,92.2
		c-2.3,3.1-5.6,5.6-8.6,8.1c-0.6,0.5-2.1,0.1-3.1,0.1c0-1.2-0.5-2.7,0.1-3.5c2-3,4.4-5.7,6.5-8.6c27.4-37.8,55-75.3,87.9-108.6
		c37.5-38.1,81-67.1,130.6-87c35.3-14.2,70.6-28.6,105.9-42.9c33.4-13.5,67-26.4,100-40.6c25.6-11,50.6-23.2,75.6-35.5
		c6.8-3.4,13.7-7.9,18.6-13.6c12.1-13.9,11.6-30,5.3-46.5c-7.9-20.5-21.6-36.9-37.5-51.4c-20.8-19-44.4-33.5-70.5-44.2
		c-15.9-6.5-32.2-11-49.5-12c-7.5-0.5-14.9-2.7-22.4-3c-18.8-0.9-37.1,3.2-54.6,9.5c-28.7,10.2-57.1,21.4-85.6,32.2
		c-1.2,0.5-2.5,0.9-3.8,1.2C704,388.8,703.2,388.7,702.2,388.7z M1206.8,256.9c2.9,0,3.3,1.6,3,4.2c-0.8,8.4,3.9,14.3,12.4,15
		c5.8,0.5,11.8,0.7,17.6-0.2c4.6-0.6,9.3-2.4,13.2-4.8c5-3.1,9.6-7.6,8.7-14.2c-0.8-6.2-6.2-8.6-11.5-10.5
		C1233.4,240.2,1220.3,249.3,1206.8,256.9c-1.4,0.3-3,0.3-4.3,1c-11.9,5.7-23.9,11.4-35.6,17.5c-6.2,3.2-12.1,7.1-18.1,10.7
		c0.2,0.4,0.4,0.8,0.7,1.2c5.1-2.7,10.2-5.4,15.3-8.1C1178.8,271.7,1192.8,264.3,1206.8,256.9z M1229.5,295.4
		c-0.2-0.5-0.4-1-0.7-1.5c-22.6,7.4-92,38.5-97.3,43.9C1164.7,323.4,1197.1,309.4,1229.5,295.4z"/>
	<path class="st0" d="M1330.4,1008.8c15.5-0.5,31.1-1,46.6-1.6c4-0.2,5.4,1.2,5.4,5.1c0.2,9.2,0.4,9.4-8.9,9.9
		c-12.9,0.7-25.8,1-38.6,1.5c-43.4,1.7-86.8,3.1-130.1,5.1c-39.8,1.9-79.5,4.2-119.2,6.7c-41.8,2.6-83.6,5.7-125.4,8.7
		c-36.5,2.6-73,5.4-109.4,8.3c-27.4,2.2-54.7,4.9-82.1,7.5c-34,3.2-67.9,6.2-101.9,9.7c-33,3.3-66,7-98.9,10.6
		c-28.8,3.2-57.6,6.4-86.4,9.8c-32,3.9-63.9,8-95.9,12.1c-32.7,4.2-65.4,8.5-98.1,13.1c-34,4.8-67.9,9.8-101.8,15
		c-35.2,5.4-70.4,11.1-105.6,16.7c-4.5,0.7-9,1.4-13.5,2.2c-4.1,0.7-5.8-1.1-6.5-5c-1.4-7.4-1.1-8.3,6.1-9.5
		c46.8-7.5,93.5-15.2,140.4-22.4c42.9-6.5,85.9-12.7,128.9-18.5c38.3-5.2,76.7-9.8,115.1-14.6c29.2-3.6,58.3-7.3,87.5-10.6
		c36.9-4.2,73.9-8,110.8-11.9c28.3-3,56.5-5.9,84.8-8.6c19.4-1.9,38.9-3.5,58.3-5.2c27.4-2.4,54.7-4.9,82.1-7.2
		c16.6-1.4,33.2-2.7,49.9-3.9c24.4-1.8,48.8-3.7,73.1-5.4c18.5-1.3,37.1-2.6,55.6-3.7c36.3-2.2,72.7-4.3,109-6.4
		c19.9-1.1,39.8-2,59.6-2.9c36.4-1.6,72.7-3.2,109.1-4.7C1330.4,1008.7,1330.4,1008.8,1330.4,1008.8z"/>
	<path class="st0" d="M707.2,1005c2.8,6.1,2.3,7.4-3.1,9.6c-6.9,2.8-13.7,5.5-20.6,8.2c-5.5,2.2-6.4,1.6-7.1-4.5
		c-0.2-1.3-0.4-2.5-0.8-4.7c-2.1,1.8-3.6,3.2-5.1,4.4c-18.9,16.1-45.3,10.8-54.7-12.1c-7.9-19.2-6.5-38.8,4.7-56.7
		c9.7-15.4,24.7-20.3,42.3-18.6c1.9,0.2,3.7,0.4,6,0.7c0.1-1.7,0.5-3.2,0.3-4.6c-1-11.3-2.1-22.6-3-33.9c-0.3-4.1-2-6.9-6.3-7.6
		c-2.6-0.5-3.9-1.9-4.2-4.5c-0.3-2.9,1.3-4,3.6-5c7.4-3.5,14.7-7.1,22-10.6c5.8-2.8,7.3-2,7.7,4.7c0.8,13.8,1.4,27.6,2.4,41.4
		c1.6,22.5,3.6,44.9,5.4,67.4c0.5,6.8,1.1,13.6,1.6,20.4c0.5,6.2,0.9,6.5,7.3,5.9C706.1,1004.7,706.7,1004.9,707.2,1005z
		 M635.2,970.9c0.4,12.6,2.9,22.2,8.4,30.3c6.6,9.8,17.9,12,27.8,5.6c2.9-1.9,4.1-4,3.8-7.5c-0.9-9-1.5-18.1-2.4-27.1
		c-0.6-6.4-1.2-12.8-2.5-19.1c-1.4-6.7-5.2-11.8-12.6-13c-7.2-1.2-13.8,2.1-17.5,8.9c-1.4,2.6-2.5,5.5-3.1,8.5
		C636.1,961.9,635.8,966.4,635.2,970.9z"/>
	<path class="st0" d="M967.8,477.8c2.9-10.4,6-20.8,8.6-31.3c2.5-10.4,4.5-20.9,6.8-31.4c-0.5-0.1-1-0.3-1.5-0.4
		c-2.2,8.4-4.5,16.9-6.7,25.3c-0.6-0.1-1.2-0.2-1.8-0.3c1.4-8.6,2.8-17.2,4.2-25.7c-0.2,0-0.5-0.1-0.7-0.1
		c-5.3,19.6-10.5,39.3-15.8,58.9c-0.1,0.5-0.1,1.3-0.4,1.6c-1.1,1.1-2.3,2-3.4,3c-0.7-1.5-2.2-3.2-1.9-4.5
		c1.2-6.3,3.2-12.5,4.5-18.8c3.4-16.5,6.7-33.1,10-49.6c0.1-0.5-0.1-1.1-1.1-1.8c-1.8,7.5-3.6,15.1-5.3,22.6
		c-2.9,12.7-5.5,25.6-8.6,38.3c-0.6,2.5-0.1,7.7-4.2,6.7c-4-1-2-5.6-1.4-8.5c2.8-13.1,6-26.2,8.9-39.4c0.9-4.1,1.4-8.3,2.1-12.4
		c-0.5-0.1-1-0.2-1.5-0.3c-1,4.1-2,8.3-2.9,12.4c-2.9,12.8-5.7,25.5-8.5,38.3c-0.2,1.1-0.2,2.5-0.9,3.3c-1.1,1.3-2.6,2.1-4,3.1
		c-0.7-1.6-2.3-3.3-2-4.6c1.3-7.3,3.2-14.4,4.7-21.7c2.1-10.4,3.9-20.9,5.8-31.3c0.3-1.4,0-3,0-5.2c-3.9,17.4-7.6,34-11.3,50.6
		c-0.5,2.2-1.1,4.4-2.1,6.5c-0.5,1-1.8,1.6-2.7,2.4c-0.8-1-2.2-1.9-2.3-2.9c-0.2-2.4,0.1-4.9,0.5-7.3c2.5-14.7,5.1-29.5,7.6-44.2
		c0.3-1.8,0-3.6-0.7-5.5c-1.9,11.4-3.8,22.7-5.8,34.1c-0.7,4.3-1.5,8.6-2.5,12.8c-0.9,3.7-2.4,4.3-5.1,2c-4.3-3.8-9.4-5.6-14.8-6.7
		c-3.7-0.7-4.9-3-4.4-6.6c1.9-14.5,3.9-28.9,5.6-43.4c0.4-3.2,0.1-6.6-1-10.1c-0.4,1.5-0.9,3-1.1,4.5c-1.8,15.2-3.6,30.5-5.4,45.7
		c-0.4,3.1,0.1,7-4.7,7c-3.3,0-5.1-3.4-4.7-8.2c1.8-18.1,3.7-36.2,5.4-54.3c0.4-4.7,0.3-9.5,0.5-14.2c0.3-5.2,2.3-6.6,6.9-4.4
		c13,6.2,25.9,12.5,38.7,19c4.4,2.3,8.7,5,12.7,7.8c5.4,3.8,10.6,7.7,15.6,12c1.7,1.5,2.4,4.1,3.7,6.3c5.6,1,9.8,4.7,12.9,9.6
		c1.8,2.9-0.7,5.8-5.6,7c-1.6,6.3-3.2,12.7-4.9,19.1c-2.8,10.8-5.6,21.6-8.6,32.3c-0.4,1.5-2.1,2.7-3.3,4.1
		C969,478.5,968.4,478.1,967.8,477.8z"/>
	<path class="st0" d="M161.3,1053.2c3.4-0.4,9.6-1.2,15.7-2c6.3-0.8,10.9-4.2,13.8-9.8c2-3.9,3.9-7.8,5.8-11.7c1.5-3.1,3.7-4,7-3.1
		c3.5,0.9,4.3,3.3,3.8,6.5c-1.2,7.7-2.4,15.3-3.5,23c-0.7,4.5-3.9,5-7.5,5.2c-13.2,0.7-26.5,1.1-39.7,2.2
		c-17.2,1.4-34.3,3.3-51.5,4.9c-2.8,0.3-6,0.6-6.6-3.5c-0.5-3.2,0.4-5.3,4.1-6.2c10.7-2.4,12.1-3.8,11.6-14.5
		c-0.9-17.6-2.5-35.2-3.8-52.7c-0.9-12.3-1.9-24.6-3-36.8c-0.2-2.3-0.5-4.5-1-6.7c-1.8-8.3-4.8-11-13.2-11.2c-3.7-0.1-5.2-1.5-5.3-5
		c-0.2-3.9,2.2-4.8,5.4-5c11.5-0.7,23.1-1.3,34.6-2.2c5.5-0.4,10.9-1.4,16.4-2.1c3.2-0.4,5.7,0.3,6.1,4.1c0.4,3.5-1.2,5.3-4.6,5.8
		c-1.7,0.2-3.4,0.6-5,1.1c-5.3,1.8-7.4,5.2-6.9,11.5c1.1,15.1,2.4,30.2,3.6,45.3c1.3,15.9,2.5,31.7,3.9,47.6
		C142.6,1050.8,145.6,1053.4,161.3,1053.2z"/>
	<path class="st0" d="M1139.9,905.7c4.3-3.4,7.5-6.5,11.1-8.6c5.2-3,10.6-6.2,16.3-7.7c14.8-4,27.8,4.3,30.3,19.4
		c1.8,10.8,2.3,21.8,3.3,32.8c0.6,6.6,1,13.2,1.5,19.8c0.5,6.8,1.5,8,8.2,9.1c3,0.5,4.3,2,4.3,4.9c0,2.9-1.8,3.9-4.4,4.1
		c-12.2,1.1-24.5,2.1-36.7,3.2c-2.7,0.2-5-0.2-5.4-3.5c-0.4-3.3,1.2-4.7,4.3-5.5c5.6-1.4,6.7-2.5,6.4-8.2c-0.6-11.3-1.6-22.7-2.6-34
		c-0.4-4.7-0.8-9.5-1.9-14c-1.7-7.3-7.5-11.1-14.8-10.1c-2.4,0.3-4.9,0.8-7.2,1.7c-10.8,3.8-12.5,6.7-11.4,18.1
		c1.1,11.7,2,23.4,3,35.1c0.2,2.3,0.7,4.5,1,6.7c0.5,3.9,2.4,6.3,6.7,6.2c3.6-0.1,5.2,1.6,5,5.2c-0.2,3.8-2.9,3.7-5.6,4
		c-11.3,0.9-22.6,2-33.9,2.8c-2.1,0.2-4.8,0.1-6.4-1.1c-2.6-1.9-1-6.2,2.4-7.5c6.3-2.3,7.3-3.2,7-9.7c-0.7-15.9-1.9-31.8-2.9-47.6
		c-0.3-4-2.3-6.8-6.5-7.6c-2.4-0.5-4.9-1.3-4.4-4.1c0.3-1.9,1.9-4.2,3.5-5.1c7.6-4.3,15.3-8.3,23.1-12.3c4.2-2.1,5.2-1.5,5.8,3.2
		C1139.3,898.4,1139.5,901.4,1139.9,905.7z"/>
	<path class="st0" d="M303.2,973c3.1-2.5,5.1-4,7.1-5.7c7-5.7,14.4-10.4,23.7-11.4c13.1-1.4,23.4,5,26.6,17.8
		c1.8,7.5,2.2,15.3,2.9,23.1c1,10.6,1.6,21.2,2.4,31.7c0.6,7.1,1.6,8.4,8.6,9.7c2.8,0.5,3.9,2.1,3.9,4.6c0,2.9-1.9,3.8-4.5,4
		c-12.3,1-24.5,2-36.8,3.1c-2.7,0.2-4.4-0.5-4.9-3.4c-0.5-2.9,0.5-4.6,3.5-5.4c6.3-1.8,7.5-3.1,7-9.5c-1-14.2-2.3-28.3-3.6-42.5
		c-0.3-2.8-1.3-5.5-2.4-8.1c-1.5-3.6-4.5-5.5-8.4-6c-8.7-1.1-16.1,1.7-22.5,7.4c-1.1,1-1.7,3.3-1.6,5c1.1,14.7,2.4,29.5,3.8,44.2
		c0.8,8.5,1.3,8.8,9.4,11.5c1.3,0.4,2.9,2.6,2.9,4c0,1.4-1.5,3.1-2.8,4c-0.9,0.7-2.6,0.3-3.9,0.4c-11.1,0.9-22.3,1.9-33.4,2.9
		c-2.8,0.3-5.9,1.3-6.7-2.9c-0.7-3.5,1-5.3,4.4-5.9c4.3-0.8,6-3.7,5.9-7.8c0-6.1,0-12.1-0.3-18.2c-0.6-9.6-1.5-19.3-2.2-28.9
		c-0.4-5.2-2-9.1-7.9-10.2c-1.4-0.3-3.4-2.2-3.6-3.6c-0.2-1.4,1.2-3.7,2.6-4.5c8.4-4.7,17-9.2,25.6-13.7c3-1.6,4.1,0.3,4.3,3.1
		C302.5,965.1,302.8,968.4,303.2,973z"/>
	<path class="st0" d="M520.8,1022.5c-3.1,3-5.5,5.9-8.4,7.8c-5,3.2-10.2,6.7-15.8,8.5c-7.2,2.4-15.3-1.8-18.4-8.7
		c-8-17.7-6.1-20.2,7.7-29c8.4-5.4,17.5-9.7,26.6-14.2c3.6-1.8,5.3-3.9,4.7-7.9c-0.3-1.9-0.2-3.8-0.5-5.7
		c-2-12.6-14.7-17.8-25.3-10.5c-3.1,2.2-3.2,5.2-1.9,8.1c1.6,3.5,0.2,5.2-2.7,6.8c-2.7,1.4-5.2,3.1-7.8,4.8
		c-2.9,1.8-4.6,0.8-5.6-2.2c-1.6-4.7-2.3-9.4,1.2-13.5c3.9-4.6,8.1-9,12.4-13.2c2.1-2.1,4.9-3.5,7.2-5.6c7.5-6.9,16.4-7.2,25.6-5.8
		c11.2,1.7,18,9.2,19.1,20.9c1.3,13.6,2.3,27.2,3.5,40.8c0.2,2.6,0.4,5.3,1,7.9c0.3,1.3,1.2,3.2,2.2,3.5c0.9,0.3,2.5-0.9,3.7-1.6
		c0.5-0.3,0.6-1.1,1.1-1.3c1.1-0.4,2.6-1.1,3.5-0.6c0.9,0.4,1.7,2,1.8,3.1c0.1,7.3-7.5,17.7-14.6,20.2c-8.5,3-16-0.5-19.2-9
		C521.5,1025.1,521.2,1024,520.8,1022.5z M518.1,992.8c-6.2,3.7-11.5,6.5-16.4,9.9c-5.9,4-6.8,12.4-2,17.6c1.1,1.3,3.1,2.2,4.9,2.4
		c5.5,0.7,14.5-6.3,14.7-11.8C519.4,1005.3,518.6,999.7,518.1,992.8z"/>
	<path class="st0" d="M1273.6,962.4c-4.8,4.2-9,8.4-13.7,11.7c-6.3,4.3-13.3,7.1-20.8,3c-3.1-1.7-5.7-4.7-8.1-7.5
		c-1.4-1.7-1.9-4.1-2.6-6.2c-3.6-10.5-2.9-14,6.7-20.1c9.7-6.2,20-11.5,30.3-16.8c4.1-2.1,5.7-4.4,4.6-8.9c-0.8-3.1-0.8-6.4-1.5-9.5
		c-1.2-5.1-4.7-7.9-9.7-8c-3.9-0.1-8,0.3-11.8,1.2c-4.9,1.2-6.4,3.8-4.7,8.5c1.6,4.2,0.1,6.3-3.4,8.1c-2.2,1.1-4.2,2.6-6.3,3.8
		c-3.9,2.3-5,1.8-6.5-2.6c-1.6-4.6-1.3-8.9,1.6-13c7.3-10.3,16.6-19.6,28.2-23.1c16.8-5.1,34.2-1.1,36.4,21.8
		c1.4,14.5,2.3,29.1,3.5,43.6c0.1,1.3,0.1,2.7,0.5,3.9c1.1,3.5,3.1,4,5.7,1.4c0.5-0.5,0.8-1.5,1.4-1.8c1.1-0.5,2.6-1.2,3.5-0.8
		c0.9,0.4,1.7,2,1.8,3.1c0.3,8.3-8.1,19-16,20.8c-8.3,1.9-14.5-1.3-17.7-9.2C1274.4,964.8,1274.1,963.7,1273.6,962.4z M1271.2,933.8
		c-0.5-0.3-1-0.5-1.5-0.8c-5.3,3.3-10.8,6.2-15.8,9.8c-5.5,3.9-5.5,13.8-0.1,18.1c1.1,0.9,2.7,1.4,4.1,1.5
		c5.8,0.3,14.6-7.2,14.6-12.9C1272.5,944.2,1271.7,939,1271.2,933.8z"/>
	<path class="st0" d="M896.8,991.6c-3.5,3.7-5.9,7.1-9,9.4c-4.1,3-8.5,5.8-13.2,7.4c-8,2.8-16.5-1-20-8.7
		c-7.6-16.7-6.3-19.8,8.1-28.9c8.4-5.4,17.6-9.6,26.6-14.1c3.4-1.7,5.1-3.6,4.5-7.4c-0.5-3-0.4-6.1-1-9c-1.5-7.2-5.5-10.4-12.8-10.2
		c-2.3,0-4.5,0.3-6.8,0.7c-6.9,1.3-8.7,3.8-6.9,10.7c0.8,3,0,4.6-2.5,6c-2.8,1.6-5.6,3.3-8.3,4.9c-2.6,1.6-4.2,0.8-5.2-1.9
		c-1.8-4.9-2.1-9.6,1.1-14.1c7.2-10.1,16.6-17.9,27.6-23.2c15.6-7.6,33.8,2,36.4,19c2.1,14,2.6,28.3,3.9,42.4
		c0.2,2.5,0.3,4.9,0.9,7.3c0.3,1.3,1.1,3.2,2.2,3.6c0.9,0.3,2.5-1,3.6-1.8c0.6-0.4,0.8-1.4,1.4-1.7c0.9-0.4,2.3-1,3-0.6
		c0.9,0.5,1.9,1.9,2,3c0.5,7.2-7.6,18.3-14.8,20.5c-8.6,2.7-15.5-0.5-18.9-8.8C898.1,995.1,897.7,994.1,896.8,991.6z M894.4,962.5
		c-5.5,3.3-10.3,6-14.8,8.9c-7.7,5-8.6,8.2-4.6,16.6c2.1,4.4,5.2,5.7,9.8,4.2c7-2.3,11.8-9.6,11-17
		C895.5,971.5,895,967.7,894.4,962.5z"/>
	<path class="st0" d="M407.1,990.4c-1.5,11.3,5.4,24.2,15.6,29.5c10.3,5.4,20.2,3.9,29.7-4.7c1.6-1.4,3-3.1,5.4-1.6
		c2.5,1.6,3.3,3.8,2,6.4c-6.9,14-17.6,23.3-33.6,24.8c-14,1.3-25.1-4.7-31.9-16.7c-11.5-20.4-11.6-41.3,0.6-61.6
		c8.3-13.8,25-20.7,40.2-17.3c13.9,3.1,24.2,16.8,23.4,31c-0.2,3.6-2.1,5-5.4,5.3c-6.6,0.6-13.2,1.3-19.8,1.9
		c-7.7,0.7-15.5,1.5-23.2,2.2C409.1,989.9,408.1,990.2,407.1,990.4z M407.6,980.3c7.5-0.9,14.6-1.5,21.6-2.8c2-0.4,4.6-2.4,5.2-4.3
		c1.8-6-4.3-13.7-10.5-14.2C414.4,958.3,405.8,968.9,407.6,980.3z"/>
	<path class="st0" d="M1024.1,943.4c0.4-10.9,3.4-21,9.9-29.8c9.4-12.7,22.1-18.3,37.8-15.8c15.2,2.5,24.1,15.1,24.8,31.1
		c0.1,3.6-1.9,5.1-5.2,5.4c-10.2,1-20.4,2-30.5,3c-4.1,0.4-8.3,0.9-12.4,1.2c-2.8,0.2-4.2,1.2-3.9,4.2c1.2,13.9,12,30.5,30.3,29.1
		c6.4-0.5,11.5-3.4,15.9-7.9c1.6-1.6,3.4-3.2,5.2-1.1c1.2,1.4,2.4,4.4,1.8,5.8c-5.7,12.6-15,21.6-28.8,24.4
		c-13.2,2.7-24.9-0.9-33.6-11.6C1026.3,970.3,1023.9,957.2,1024.1,943.4z M1044.1,929.5c8.8-1.2,16.2-2.2,23.6-3.4
		c3-0.4,4.8-2.1,4.7-5.4c-0.2-5-1.8-9.4-6.5-11.8c-4.6-2.4-9.2-1.7-13.3,1.5C1046.9,915,1045.4,921.5,1044.1,929.5z"/>
	<path class="st0" d="M736.5,963.9c-1.2,13.6,7.4,27.2,19.2,31.3c9.4,3.3,17.9,1.5,25.2-5.4c1.2-1.1,2.5-2.5,4-3
		c3-0.8,6,3.3,4.5,6.5c-10.7,23.8-39.8,34.5-59.9,15.8c-6.5-6.1-10.3-14.1-12.1-22.8c-3.2-15.5-2.4-30.5,5.8-44.6
		c8.5-14.5,24.3-22,40.5-19.2c14.6,2.6,23.9,15.7,24.3,30.9c0.1,3.7-2,5.3-5.7,5.7c-12.1,1.1-24.1,2.2-36.2,3.4
		C743.1,962.9,739.9,963.4,736.5,963.9z M736,954.1c8.5-1.2,15.9-2.1,23.4-3.3c3.6-0.6,5.1-3,4.5-6.6c-0.8-5.2-2.7-9.5-8.1-11.3
		c-5.1-1.8-9.4,0-12.9,3.6C738.6,941,736.5,946.6,736,954.1z"/>
	<path class="st0" d="M974.7,926.7c3.4-5.5,5.6-10.1,8.8-14c2.7-3.3,6-6.4,9.6-8.6c5.2-3.1,11.9-1.7,15.7,2.3
		c3.8,4.1,4.9,12.5,2.2,17.1c-2.8,4.7-7.4,5.5-12.3,5.4c-1.7,0-3.3-0.6-5-1.1c-9.1-2.6-18.2,4-17.7,13.7c0.7,13.2,2.1,26.4,3.4,39.6
		c0.6,5.3,2.6,6.8,7.8,7.2c1.5,0.1,3.5-0.3,4.4,0.5c1.4,1.2,2.6,3.2,2.8,4.9c0.1,1-1.8,2.4-3,3.4c-0.7,0.5-1.8,0.3-2.8,0.4
		c-12.8,1-25.7,1.9-38.5,3c-3,0.3-5.4,0.2-6-3.3c-0.7-3.8,1.5-4.9,4.8-5.4c6-1,7.5-2.7,7.1-8.1c-1.2-15.3-2.6-30.6-3.9-45.9
		c-0.5-5.8-2.6-10.2-9.4-10.7c-1.2-0.1-2.9-2-3.1-3.2c-0.2-1.3,0.7-3.3,1.9-4.3c1.7-1.4,3.9-2.2,6-3.3c6.1-3.1,12.1-6.2,18.2-9.3
		c6.5-3.3,7.6-2.5,8,5C973.9,916.6,974.3,921,974.7,926.7z"/>
	<path class="st0" d="M223.1,1058.8c-0.4-0.4-2.2-1.6-2.8-3.1c-0.9-2.6,0-4.6,3-5.7c6.7-2.3,7.1-2.5,6.7-9.1
		c-0.9-15.9-2.1-31.7-3.4-47.6c-0.3-4.1-2.4-6.9-6.6-8.3c-1.6-0.5-4-2.5-3.9-3.8c0-1.8,1.6-4.3,3.2-5.2c7.5-4.4,15.2-8.5,22.9-12.5
		c4.1-2.2,5.9-1.1,6.2,3.7c1.6,21.1,3.2,42.3,4.8,63.4c0.2,2.3,0.5,4.5,0.6,6.8c0.3,5.4,1.7,9.6,8.3,10.2c1.2,0.1,3.2,2.9,3.1,4.4
		c-0.1,1.4-2.3,3.5-3.8,3.7c-4.9,0.7-9.8,0.4-14.7,0.8C239.4,1057.1,232.1,1057.9,223.1,1058.8z"/>
	<path class="st0" d="M489.7,854.6c10.7-3,21.4-6,32.1-9.2c19.4-5.8,38.8-11.5,58.2-17.5c32-9.9,64-19.7,95.9-29.9
		c22.4-7.1,44.6-14.8,66.8-22.3c26.5-9,53.1-18,79.5-27.4c25.5-9.1,50.8-18.7,76.2-28.1c19.3-7.2,38.8-14.2,57.9-21.9
		c15.8-6.3,28.8-16.4,39.3-29.9c10-12.8,17.2-27.2,23.3-42.1c0.5-1.3,1.2-2.6,1.9-3.9c0.4,0.1,0.8,0.2,1.2,0.3
		c-0.5,2.6-0.6,5.3-1.7,7.6c-8.2,17.2-15.7,34.8-30.5,47.9c-6.4,5.6-11.7,12.4-19.6,16.2c-3.9,1.9-7.6,4.3-11.5,6
		c-7,2.9-14.1,5.5-21.1,8.2c-6.3,2.5-12.6,5-18.9,7.4c-5.6,2.2-11.2,4.5-16.9,6.5c-15.8,5.7-31.7,11.3-47.5,17
		c-11.8,4.3-23.5,9.1-35.4,13.2c-8,2.8-16.3,4.8-24.4,7.4c-5.9,1.9-11.7,4.2-17.5,6.4c-6.3,2.4-12.6,5.2-19,7.3
		c-12.9,4.3-26,8.1-38.9,12.4c-11.1,3.7-22,8-33.1,11.7c-8.6,2.9-17.3,5.1-26,7.8c-2.3,0.7-4.4,2.1-6.7,2.9
		c-5.1,1.8-10.3,3.5-15.5,5.1c-7.3,2.3-14.6,4.6-22,6.6c-8.7,2.4-17.6,4.1-26.3,6.7c-6.2,1.9-12.1,5.1-18.3,7.1
		c-8.1,2.5-16.4,4.3-24.5,6.5c-3.8,1-7.4,2.4-11.1,3.6c-0.5,0.2-0.9,0.7-1.5,0.8c-8.4,2.3-16.8,4.6-25.1,6.9
		c-2.8,0.8-5.6,2.1-8.5,2.7c-3.6,0.7-7.3,0.9-10.9,1.3C489.8,855.6,489.7,855.1,489.7,854.6z"/>
	<path class="st0" d="M1309.7,288.6c1.1,4.1-0.6,7.3-2.7,9.6c-8.3,8.5-15.9,17.9-27,23.1c-8.7,4.1-17.4,8.2-26,12.4
		c-7,3.4-13.8,7-20.8,10.2c-7.7,3.5-15.6,6.6-23.4,9.8c-6.7,2.8-13.5,5.6-20.3,8.3c-5.5,2.1-11.1,3.7-16.6,5.8
		c-12.7,5-25.2,10.2-37.8,15.3c-9.6,3.9-19.5,7.2-28.8,11.6c-15.9,7.5-31.8,15-45.9,25.7c-5.4,4.1-10.3,8.8-15.2,14
		c1.6-2.6,2.8-5.9,5-7.7c9-7.2,17.7-15,27.6-20.7c24.5-14,50.8-24.4,77.1-34.7c24.9-9.7,49.9-19,74.6-29c19.6-8,38.6-17.4,56.8-28.4
		c9.7-5.8,17.5-13.2,22-23.7C1308.5,289.7,1309,289.4,1309.7,288.6z"/>
	<path class="st0" d="M233.1,939.9c-8-0.1-15.3-7.7-15.2-16c0.1-8.3,7.1-15.3,15.1-15.3c8,0,15.2,7.6,15.2,15.9
		C248.2,932.5,240.8,940,233.1,939.9z"/>
	<path class="st0" d="M886.3,433.2c1.1-12.4,2.4-24.9,3.4-37.3c0.5-6.6,0.7-13.2,1-19.9c0.2-5,0.1-10,0.5-14.9c0.2-3,2.7-3.3,5.2-3
		c3,0.3,4.7,2.2,4.3,5c-2.1,14.5-2.6,29.2-4.4,43.7c-1.2,9-2.1,18-3.3,27.1c-0.3,2.3-0.1,5.7-3.5,5.5
		C885.9,439.2,886,435.9,886.3,433.2z"/>
	<path class="st0" d="M600.7,786.4c5-6,89.2-35,97-33.8C692.3,757.2,611.1,785.7,600.7,786.4z"/>
	<path class="st0" d="M945.6,669c0.7,4.7-2.6,5.5-4.9,6.4c-11.7,4.9-23.4,9.6-35.2,14.1c-9,3.4-18.1,6.4-27.3,9.4
		c-2.2,0.7-4.6,1-7.6,1.7c1.8-4.9,5.7-5.7,8.7-6.9c14.2-5.7,28.6-10.9,42.9-16.3c5.8-2.2,11.6-4.5,17.4-6.7
		C941.4,670,943.4,669.6,945.6,669z"/>
	<path class="st0" d="M787.8,674.1c-5.6,7.3-59.9,28.4-67.9,26.6C742.1,690.6,764.4,681.1,787.8,674.1z"/>
	<path class="st0" d="M1000,424.7c3.5,4.8,2.4,8.8,1.5,12.4c-3.9,16-8.1,31.9-12.2,47.8c-0.2,0.9-0.2,2.1-0.8,2.7
		c-1,0.9-2.3,1.4-3.5,2.1c-0.3-1.2-1.2-2.6-0.9-3.7c2.2-8.4,4.9-16.7,7-25.1c2.6-10.5,4.8-21,7.2-31.5
		C998.5,428.1,999.1,427,1000,424.7z"/>
	<path class="st0" d="M785.8,653.2c-3.4,5.3-46.7,23.2-57,23.6C731.8,671.3,778.1,652.1,785.8,653.2z"/>
	<path class="st0" d="M377.2,851.5c2.4,0,4.7-0.7,6.1,0.1c5.1,3.2,10.5,4.8,16.5,5.2c3.1,0.2,6,2.2,9.1,3.1c6.4,1.8,8,1.1,11.7-4.5
		c3.4-5.3,7.9-6.4,14.1-5.8c7.4,0.7,15,0,22.5-0.1c1.8,0,3.7-0.2,5.4,0.3c6.4,1.6,12.7,3.5,18.9,5.2c-5.4,0.9-10.7,1.7-16.6-1.4
		c-3.7-1.9-8.8-1.3-13.3-1.4c-7.7-0.1-15.5,0.2-23.3,0.2c-3,0-5.3,1.4-6.1,4.2c-1.5,5.6-5.8,6.6-10.6,6.4c-2.8-0.1-5.6-1-8.3-1.5
		c-3.1-0.6-6.3-1.1-9.4-1.9c-2.1-0.6-4.3-1.4-6.2-2.4C384.4,855.6,381.3,853.7,377.2,851.5z"/>
	<path class="st0" d="M881.2,435.6c-1.8-5.1,2.9-65.7,6-69.6c1.9,7.7-0.8,15.2-1.2,22.9c-0.4,7.9-0.8,15.9-1.3,23.8
		c-0.5,7.7-1.2,15.5-1.8,23.2C882.4,435.8,881.8,435.7,881.2,435.6z"/>
	<path class="st0" d="M582.4,455.2c-1.3,1.1-2.4,2.5-3.8,3.2c-12.9,5.8-25.8,11.6-38.7,17.2c-1,0.5-2.3,0.3-3.7-0.3
		c14.1-9.6,29.3-16.4,45.3-21.6C581.8,454.2,582.1,454.7,582.4,455.2z"/>
	<path class="st0" d="M638.8,746.6c11.5-7.5,24.4-11.3,37.4-14.7c0.3,0.4,0.5,0.8,0.8,1.1c-0.7,0.9-1.2,2.4-2.1,2.7
		c-11.5,4.3-23,8.4-34.5,12.6c-0.3,0.1-0.7-0.2-1-0.3C639.2,747.5,639,747.1,638.8,746.6z"/>
	<path class="st0" d="M1254,309.1c-2.2,7-24.7,18.7-34.6,18.4C1230,320.1,1241.1,313.9,1254,309.1z"/>
	<path class="st0" d="M997.5,483.1c-1.7-5,3.2-22.7,7.3-26.7C1005.9,466.7,1002.1,475,997.5,483.1z"/>
	<path class="st0" d="M492.3,839.7c-3.2,6.1-12.2,8.4-17.7,4.3c-0.7-0.5-1.5-1.7-1.3-2.1c0.4-0.9,1.4-2.1,2.2-2.1
		C481,839.6,486.6,839.7,492.3,839.7z"/>
	<path class="st0" d="M1121.2,368.3c7.4-6,15.9-9.2,25.3-10.3c-2.8,4.3-7.8,4.7-11.9,6.7C1130.5,366.6,1126.7,370.2,1121.2,368.3z"
		/>
	<path class="st0" d="M995.1,421.8c2.4,8.6-0.3,16.2-4.4,23.6C989.3,437.1,991,429.3,995.1,421.8z"/>
	<path class="st0" d="M758.3,384.2c7.8-4.7,15.8-9,25.2-9.2C776.3,381.3,767.2,382.4,758.3,384.2z"/>
	<path class="st0" d="M1027.7,602.3c2.9-11.2,5.9-22.4,8.9-33.9c1.7,3.4,1,11.9-2.3,17.6c-3.1,5.3-1,12.3-5.6,16.9
		C1028.3,602.7,1028,602.5,1027.7,602.3z"/>
	<path class="st0" d="M876.1,376.3c-0.1-3.8-0.3-7.6-0.2-11.4c0-0.7,1.9-2,2.2-1.9c1.2,0.6,2.9,1.9,2.8,2.8
		c-0.4,3.6-1.4,7.1-2.2,10.6C877.8,376.4,876.9,376.3,876.1,376.3z"/>
	<path class="st0" d="M355.1,853.7c5.2-2.6,10-4.9,14.8-7.4c2.4-1.2,4.7-2.1,6.5,0c-3.6,1.9-7,3.5-10.2,5.5
		C362.6,854,359,854.8,355.1,853.7z"/>
	<path class="st0" d="M837.5,369.1c0-0.2-0.1-0.4,0-0.6c2.2-2.6,6.3-3.9,8.1-2.3c0.6,0.5,0.9,2.1,0.6,2.8
		C845.2,371.4,841,371.3,837.5,369.1z"/>
	<path class="st0" d="M842,381c-1.7-1.6-2.7-2.6-3.8-3.6c1.7-1.1,3.3-2.7,5.2-3.2c0.8-0.2,2.2,1.8,3.3,2.8
		C845.3,378.2,843.9,379.4,842,381z"/>
	<path class="st0" d="M557.1,480.2c-4.6,2.1-8,3.6-11.5,5.2C547.1,480.1,550.9,478.5,557.1,480.2z"/>
	<path class="st0" d="M842.9,389.9c-1.5-1.7-2.3-2.7-3.2-3.8c1.3-1,2.6-2.5,4.1-2.9c0.7-0.2,2,1.5,3.1,2.3
		C845.7,386.8,844.6,388,842.9,389.9z"/>
	<path class="st0" d="M1005.9,576.6c-1.8,5.6-2.9,6.2-7.8,4.7C999.6,577.5,1000.4,577,1005.9,576.6z"/>
	<path class="st0" d="M976.1,637.8c0.3,0.5,0.5,0.7,0.5,0.8c0.3,3.8-2.4,4.7-5.2,5.1c-0.5,0.1-2-1.5-1.8-2
		C970.4,638.1,973,637.4,976.1,637.8z"/>
	<path class="st0" d="M1057.1,492.3c-1.4,4.9-2.7,9.7-4.1,14.6c-0.6-0.2-1.2-0.4-1.9-0.5c1.4-4.8,2.8-9.7,4.2-14.5
		C1055.9,492,1056.5,492.2,1057.1,492.3z"/>
	<path class="st0" d="M480.8,537.9c-0.6,4.5-3.5,5.3-7.5,5.2C473.9,537.9,478.2,539.2,480.8,537.9z"/>
	<path class="st0" d="M608.1,461.2c-2.7,2.2-4.9,5.3-9,4.3c-0.2-0.5-0.5-1-0.7-1.5c3-1.6,6-3.1,9.1-4.7
		C607.7,460,607.9,460.6,608.1,461.2z"/>
	<path class="st0" d="M1039.6,558.5c0.6-4.7,1.1-9.4,1.7-14.1c0.5,0.1,1,0.2,1.5,0.2C1043.9,549.7,1043,554.3,1039.6,558.5
		L1039.6,558.5z"/>
	<path class="st0" d="M1022.6,617.2c1.2-3.3,2.4-6.7,3.5-10c0.6,0.2,1.2,0.4,1.8,0.6c-1.1,3.4-2.2,6.8-3.3,10.1
		C1024,617.6,1023.3,617.4,1022.6,617.2z"/>
	<path class="st0" d="M975.4,575.1c-2.3,0.9-4.7,1.7-7,2.6c1.3-3.2,2.9-5.7,6.3-4.4C974.9,573.9,975.2,574.5,975.4,575.1z"/>
	<path class="st0" d="M847,393.9c-1.5,1.3-2.4,2.8-3.1,2.7c-1.1-0.2-2-1.5-3-2.3c0.8-0.8,1.6-2.2,2.5-2.3
		C844.2,391.9,845.3,393,847,393.9z"/>
	<path class="st0" d="M1284,288.7c0,4,0,4-4.3,4.1C1280.3,289.3,1280.3,289.3,1284,288.7z"/>
	<path class="st0" d="M1046.4,527.7c0.6-4.3,1.3-8.6,1.9-12.9c0.4,0.1,0.8,0.2,1.3,0.3C1050.8,519.8,1048.5,523.7,1046.4,527.7
		L1046.4,527.7z"/>
	<path class="st0" d="M424.8,567.7c1.2-2.9,2.3-5.8,3.5-8.6c0.6,0.2,1.2,0.5,1.8,0.8c-1.2,2.8-2.5,5.7-3.7,8.5
		C425.8,568.1,425.3,567.9,424.8,567.7z"/>
	<path class="st0" d="M441.9,843.5c-1.4,1.1-2.2,2-3.2,2.4c-0.3,0.1-1.8-1.3-1.6-1.7c0.3-1.1,1.2-2,1.9-3
		C439.7,841.8,440.5,842.4,441.9,843.5z"/>
	<path class="st0" d="M995.6,608.3c-1.6,0.9-2.6,1.7-3.7,1.9c-0.5,0.1-1.2-1-1.8-1.6c0.9-0.7,1.7-1.7,2.8-2.1
		C993.3,606.3,994.2,607.3,995.6,608.3z"/>
	<path class="st0" d="M987.8,622.8c-1.5,1-2.5,1.7-3.4,2.4c-0.5-0.8-1.6-1.7-1.5-2.5c0.1-0.8,1.3-1.9,2.1-2
		C985.6,620.6,986.5,621.7,987.8,622.8z"/>
	<path class="st0" d="M1049.4,441.1c1.3,2.7,2.6,5.4,3.9,8c-0.4,0.2-0.8,0.4-1.2,0.6c-1.4-2.6-2.8-5.1-4.2-7.7
		C1048.5,441.7,1049,441.4,1049.4,441.1z"/>
	<path class="st0" d="M1046.3,527.7c0,3.4,1.1,7.1-1.6,10c-0.4-0.1-0.9-0.2-1.3-0.3C1044.4,534.2,1045.4,531,1046.3,527.7
		L1046.3,527.7z"/>
	<path class="st0" d="M1056.1,456.3c0.5,2,0.9,4,1.4,6c-0.5,0.1-1,0.3-1.5,0.4c-0.5-2-1.1-4-1.6-6
		C1054.9,456.5,1055.5,456.4,1056.1,456.3z"/>
	<path class="st0" d="M487.5,488.6c-1.6,1.1-3.3,2.2-4.9,3.3c-0.2-0.3-0.5-0.6-0.7-1c1.6-1.3,3.2-2.6,4.9-3.9
		C487,487.6,487.2,488.1,487.5,488.6z"/>
	<path class="st0" d="M560,820.4c1.2-0.4,2.4-0.8,3.6-1.2c0.2,0.6,0.4,1.1,0.6,1.7c-1.2,0.4-2.4,0.8-3.6,1.2
		C560.4,821.6,560.2,821,560,820.4z"/>
	<path class="st0" d="M843,400.2c0.8,1,1.7,1.6,1.6,2c-0.2,0.8-0.9,1.4-1.3,2.1c-0.5-0.5-1.4-0.9-1.5-1.4
		C841.8,402.2,842.4,401.5,843,400.2z"/>
	<path class="st0" d="M1031.2,526.3c-1.1,0.8-2.3,1.6-3.4,2.3c-0.4-0.5-0.7-1-1.1-1.5c1.1-0.9,2.2-1.7,3.3-2.6
		C1030.4,525.2,1030.8,525.7,1031.2,526.3z"/>
	<path class="st0" d="M889.1,359.3c-1.2,0.6-1.9,1.2-2.7,1.3c-0.2,0-1-1.2-0.8-1.7c0.2-0.5,1-1.1,1.6-1.2
		C887.6,357.7,888.1,358.5,889.1,359.3z"/>
	<path class="st0" d="M1039.5,558.4c-0.1,1.8-0.2,3.6-0.2,5.5c-0.6-0.1-1.1-0.2-1.7-0.3C1038.2,561.9,1038.9,560.2,1039.5,558.4
		L1039.5,558.4z"/>
	<path class="st0" d="M573.8,814.4c0.6,0.9,1,1.5,1.3,2c-0.6,0.3-1.1,0.8-1.8,1c-0.3,0-1.1-0.8-1-1
		C572.5,815.8,573.1,815.3,573.8,814.4z"/>
	<path class="st0" d="M612.3,427.6c-1.1,0.6-2.2,1.2-3.3,1.7c-0.2-0.3-0.4-0.6-0.6-0.9c1.1-0.7,2.2-1.3,3.3-2
		C611.9,426.8,612.1,427.2,612.3,427.6z"/>
	<path class="st0" d="M440,540.6c-0.1,0.5-0.2,1-0.4,1.4c-0.6,0.9-1.2,1.8-2.6,2.2c0.8-1.3,1.6-2.6,2.4-4
		C439.5,540.3,439.8,540.5,440,540.6z"/>
	<path class="st0" d="M594.7,447c0.5,1,1.2,1.7,1,2c-0.3,0.5-1.1,0.8-1.7,0.9c-0.3,0-1-0.8-0.9-1C593.4,448.3,594,447.9,594.7,447z"
		/>
	<path class="st0" d="M1239,261.9c2.3,1.1,6.9,2.2,7,3.6c0.3,4.1-4,4.3-7,4.8c-3.7,0.6-7.4,0.9-11.2,0.8c-1.5-0.1-2.9-1.8-4.4-2.7
		c1.1-1.1,2.1-2.7,3.5-3.2C1230.7,263.9,1234.5,263.1,1239,261.9z"/>
</g>
</svg>
