<?xml version="1.0" encoding="utf-8"?>
<!-- Generator: Adobe Illustrator 25.0.1, SVG Export Plug-In . SVG Version: 6.00 Build 0)  -->
<svg version="1.1" id="Capa_3" xmlns="http://www.w3.org/2000/svg" xmlns:xlink="http://www.w3.org/1999/xlink" x="0px" y="0px"
	 viewBox="0 0 1417.3 1417.3" style="enable-background:new 0 0 1417.3 1417.3;" xml:space="preserve">
<style type="text/css">
	.st0{fill:#FFFFFF;}
</style>
<g>
	<path class="st0" d="M566.3,422.6c14.3-3.4,28.2-6.6,42-10.2c1.5-0.4,2.9-3.4,3.4-5.5c18.4-72.5,37.1-144.9,54.9-217.5
		c14.2-58,52.3-89.9,108.9-101c47.6-9.3,92.9,16.1,109.2,59.2c4.4,11.5,5.9,23.4,4.7,35.8c-5.5,57.3-10.8,114.6-16.1,171.8
		c-1.8,19.2-3.7,38.4-5.5,58.2c12.7,3.2,25.1,6.8,37.7,9.5c21.1,4.4,36.9,16.8,48.9,33.8c20.3,28.8,22,60.6,13.1,93.6
		c-0.3,1.2-0.7,2.3-1,3.4c-0.3,0.9-0.6,1.9-1.4,4.1c6.2-1.9,11.5-4.3,17-5c14.2-2,22.1-10,27.6-23.1c6.7-16.1,14.2-32,26.1-45.2
		c27.4-30.3,60.7-48,102.2-47.7c41.1,0.3,75.1,23.6,88.5,61.8c4.8,13.7,5.7,28.8,7.9,43.3c0.7,4.8,2.3,7.3,7,8.7
		c8.4,2.4,16.6,5.4,24.9,8.4c35.5,12.9,55.7,38.9,60,75.6c6,50.8-16.9,89.2-56.7,118.8c-11.9,8.9-25.2,15-39.7,18.8
		c-10,2.7-19.9,5.7-29.7,9.1c-2.6,0.9-5.4,3.3-6.7,5.7c-6,11.2-11,23-17.2,34c-26.6,47.1-66.9,72.3-121.3,71.6
		c-41.1-0.5-78.6-30.5-87.5-68.2c-2.9-12.2-4.1-24.7-5.7-37.2c-0.6-4.4-2.2-6.9-6.8-8.2c-7.8-2.2-15.3-5.6-23.2-7.7
		c-29.9-8.3-60.7-38.8-62.7-83.2c-0.6-14.1,2-28.4,3.2-42.9c-10.2,1.7-21.9,3.6-33.6,5.7c-10.7,1.9-10.6,2-13,12.8
		c-28.2,130.7-56.3,261.3-84.5,392c-11.3,52.5-23.2,104.9-33.7,157.6c-6.4,32.3-23.9,56.5-49.7,75.2
		c-31.9,23.1-67.5,32.9-106.1,21.4c-36.1-10.8-59.1-35.6-65.8-73c-2.1-12,0.2-25,2-37.3c9.6-69,19.6-137.9,29.5-206.9
		c10.6-73.9,21.2-147.7,31.8-221.6c5.6-39.4,11.3-78.8,16.9-118.2c0.2-1.7,0.2-3.5,0.4-5.7c-10.4-2.7-20.5-5.7-30.7-8
		c-20.9-4.7-36.8-16.9-49-33.8c-19.5-27-22.4-57.1-14.3-88.8c0.6-2.3,1.2-4.5,2.2-7.9c-11.8,3.6-22.8,6.9-33.6,10.5
		c-1.5,0.5-2.5,2.9-3.4,4.6c-6.2,12.3-12.1,24.6-18.3,36.9c-21.1,41.9-74.7,71.7-121.4,68.9c-43.7-2.6-85-36.4-88.9-84.5
		c-0.6-7.7-2.4-15.3-3.2-23c-0.4-3.4-1.9-4.7-4.9-5.7c-9.1-2.9-18.1-6.1-27.1-9.2c-34.9-11.8-60.1-46.8-60.4-83.7
		c-0.4-58.6,29.5-98,80-123c14.6-7.3,31.4-10.1,47-15.4c2.8-0.9,5.8-3.4,7.1-6c5.8-10.8,10.6-22.3,16.6-33
		c27-48,67.7-73.6,123.3-72.1c41.6,1.1,78,31.4,86.2,70.2c2.5,11.7,3.9,23.6,5.3,35.4c0.5,4.6,2.4,6.5,6.5,7.7
		c8.4,2.6,16.6,5.5,24.9,8.4c36.5,13.2,55.7,40,60.8,77.7c1.1,8,0.7,16.3,0,24.4C570.2,405.7,568,413.6,566.3,422.6z M580.1,1276.5
		c8.2-1.2,14.5-1.4,20.4-3.1c37.8-11.2,62.2-33.9,70.7-74.6c26.4-127,54.3-253.6,81.6-380.4c12.4-57.7,24.8-115.5,37.3-173.2
		c3.6-16.5,14.8-27.6,30.6-30.5c7.4-1.3,14.9-2.5,22.4-3.8c10-1.9,20.4-2.5,29.7-6.1c18.7-7.2,33.3-20.1,44.3-36.9
		c13.4-20.4,20.1-42.5,15-66.9c-4.5-21.5-16.6-36.5-39.3-41.5c-15.7-3.5-31.3-7.7-46.9-11.7c-13.9-3.5-19-10.2-17.8-24.5
		c2.8-31.7,5.9-63.4,8.9-95.1c4.6-48.8,8.9-97.5,13.9-146.2c2.4-23.4-12.9-42.2-29-49.9c-15.8-7.6-32.4-8.7-48.9-3.8
		c-32.4,9.5-57.5,28-66.4,62.2c-20.5,79.3-40.3,158.8-60.2,238.3c-2.7,10.7-8.4,17-19.3,19.3c-15.2,3.3-30.1,7.7-45.3,10.6
		c-23,4.4-40.3,17.5-54.6,34.9c-15.1,18.4-22.5,39.5-19.5,63.8c2.4,19.2,18.3,40.9,39.1,44.8c12.5,2.3,24.7,6.1,37,9.6
		c15.6,4.4,24.3,17.5,22.3,33.5c-2.4,18.8-5.1,37.5-7.8,56.2C586,786.2,573.8,871.1,561.7,956c-12.3,86.1-24.6,172.2-36.9,258.3
		c-3.6,25,8.3,46.8,31.9,56.3C564.6,1273.8,573.4,1274.9,580.1,1276.5z M535.6,385.4c0.7-24.6-14.5-49.6-40-56.6
		c-12.6-3.5-24.9-8.4-37.3-12.7c-7.5-2.6-11.8-7.7-13-15.6c-2-13.6-4.1-27.2-5.9-40.8c-3.6-26.6-21.9-45.4-48.4-49.2
		c-35.3-5.1-77.1,16.7-93.3,48.8c-7.5,14.9-14.9,29.9-22.1,44.9c-3.1,6.6-7.9,10.7-14.9,12.6c-12.2,3.5-24.4,7.4-36.6,10.9
		c-11,3.1-21.6,6.9-30.9,13.7c-26.9,19.5-44.2,44.5-44,79c0.2,25.2,16.9,47.1,38.7,53.2c12.6,3.5,24.8,8.6,37.3,12.6
		c8.5,2.8,13.2,8.4,14.4,17.1c0.9,6.5,1.7,13,2.8,19.5c1.8,11,2.1,22.5,5.9,32.8c8.4,22.8,26.1,35.2,50.2,37.2
		c35.6,2.9,73.8-19.3,89.6-51.4c7-14.2,14.3-28.4,21.1-42.7c3.2-6.8,8.2-10.9,15.3-12.9c14.5-4.2,29-8.4,43.3-13.3
		c7.3-2.5,14.6-5.5,21-9.7C516.7,444.5,534,419.6,535.6,385.4z M1129.8,473c-31.4,2.3-59.3,19.1-77.3,51.3
		c-7.7,13.8-14.5,28.3-21.2,42.7c-3.4,7.3-8.5,11.5-16.2,13.6c-14.2,4-28.2,8.4-42.3,12.7c-35.8,10.9-64.1,45-67.9,82.2
		c-2.6,25.9,11.3,53.7,39.1,61.7c12.6,3.6,24.9,8.4,37.3,12.6c7.9,2.7,12.6,8.1,13.8,16.4c2,13.8,4.1,27.5,6,41.3
		c3.5,25.6,23.6,45.3,49.4,48.4c35.9,4.4,76.5-17.5,92.7-50c7.4-14.8,14.7-29.5,21.9-44.4c3.1-6.4,7.7-10.3,14.5-12.2
		c13.6-3.9,27-8.4,40.6-12.2c24.6-6.9,42.9-22.2,56.7-43c11-16.6,16.4-35,13.5-55c-3.2-22.4-14.8-38.6-37-46.2
		c-13-4.4-26-8.9-38.9-13.3c-8.2-2.8-12.8-8.3-13.8-17c-0.6-5.5-1.5-11-2.4-16.5c-1.8-11.6-2.4-23.5-5.9-34.6
		C1185,487.5,1162.6,473.1,1129.8,473z"/>
	<path class="st0" d="M594.1,1229.2c-13.6,0.2-23.5-9.4-21.3-24.1c11.9-79.3,22.9-158.7,34.2-238.1c10.2-71.1,20.4-142.2,30.6-213.3
		c7.5-52.6,15-105.2,22.5-157.8c1.3-9.3-3-15.9-12.2-18.4c-25-6.6-50-13.1-75-19.6c-14.6-3.8-21.3-15.4-16.8-30
		c3.8-12.2,11.5-20.5,24.5-23.5c26.9-6.2,53.8-12.9,80.7-19c12.8-2.9,20.1-10.2,23.4-23.1c22.2-88.9,44.8-177.8,67.3-266.6
		c4.3-17.1,21.4-27,37.6-22.1c10.4,3.2,15,10.4,14,21.2c-4.7,48.7-9.2,97.5-13.8,146.2c-3.8,40.2-7.6,80.5-11.5,120.7
		c-1.5,15,2,20.4,16.4,24c25.1,6.3,50.2,12.6,75.2,18.9c9.6,2.4,14.5,7.9,15.7,17.8c1.5,11.9-2.1,22.4-9.7,31.6
		c-4.6,5.5-10.5,8.1-17.5,9.3c-27.7,4.6-55.3,9.4-83,14.2c-12.2,2.1-18.6,8.3-21.2,20.4c-30.4,141.2-60.7,282.3-91.1,423.5
		c-13.2,61.6-26.5,123.3-39.7,184.9C620.4,1220.2,608.8,1229.2,594.1,1229.2z"/>
	<path class="st0" d="M316.8,545.8c-13.1-0.1-21.4-7.6-23.2-20.7c-2.8-19.7-5.8-39.4-8.4-59.1c-1.3-9.5-6.1-15.4-15.3-18.5
		c-18.5-6.1-36.8-13-55.4-18.6c-12.6-3.8-18.5-15.7-15.9-27.5c2.8-12.9,10.4-22.2,23.5-26.1c22.1-6.7,44.1-13.4,66.2-20
		c8.7-2.6,14.9-7.9,19-16c10.6-21.4,21.2-42.7,31.9-64c6.5-12.9,22.1-20.2,35.6-16.9c9.5,2.3,15.5,9,16.8,18.6
		c2.9,20.7,5.9,41.4,8.8,62c1.2,8.5,5.7,13.9,14.1,16.7c19.1,6.2,38.1,12.8,57.1,19.2c11.4,3.9,17.6,13.6,15.5,25.5
		c-2.5,13.8-10.2,23.6-23.9,27.8c-22,6.8-44.1,13.4-66.2,20c-8.5,2.5-14.7,7.7-18.6,15.6c-10.7,21.3-21.2,42.7-31.9,64
		C340.8,538.7,329,545.9,316.8,545.8z"/>
	<path class="st0" d="M1120.8,521c15.3,0,24,7.1,25.8,19.8c3,20.1,6,40.1,8.6,60.3c1.2,9.4,6,15.1,14.9,18.1
		c18.9,6.3,37.7,12.7,56.5,19.1c12.4,4.2,18.6,14.7,15.5,27.5c-3.1,12.9-10.7,21.9-23.8,25.9c-21.7,6.5-43.4,13.2-65.1,19.6
		c-9.4,2.8-15.9,8.5-20.2,17.2c-10.4,21-20.8,42-31.3,62.9c-6.6,13.1-22.5,20.5-36.1,16.9c-9.2-2.4-15.1-9-16.4-18.3
		c-2.9-20.5-5.9-41-8.7-61.4c-1.2-8.8-5.8-14.4-14.3-17.2c-18.9-6.2-37.5-13.2-56.6-18.9c-13.6-4.1-18.7-16.3-15.9-28.5
		c2.9-12.4,10.5-21.3,23.1-25.1c22.1-6.8,44.1-13.4,66.3-20c8.9-2.7,15.2-8.1,19.3-16.5c10.4-21,20.8-42,31.4-62.9
		C1099.9,527.4,1110.1,521.8,1120.8,521z"/>
</g>
</svg>
