<?xml version="1.0" encoding="utf-8"?>
<!-- Generator: Adobe Illustrator 25.0.1, SVG Export Plug-In . SVG Version: 6.00 Build 0)  -->
<svg version="1.1" id="Capa_2" xmlns="http://www.w3.org/2000/svg" xmlns:xlink="http://www.w3.org/1999/xlink" x="0px" y="0px"
	 viewBox="0 0 1417.3 1417.3" style="enable-background:new 0 0 1417.3 1417.3;" xml:space="preserve">
<style type="text/css">
	.st0{fill:#FFFFFF;}
</style>
<g>
	<path class="st0" d="M694.1,585.1c-5.6-6.1-12-10.9-15.6-17.2c-8.3-14.6-15.3-30-22.8-45.1c-3.5-7.1-2.7-13.5,1.9-20.2
		c55-79.6,109.8-159.3,164.7-239c20.2-29.4,40.5-58.7,60.8-88.1c14.7-21.2,33.4-26,56.7-13.5c22,11.7,43.8,23.8,65.3,36.5
		c23,13.7,45.5,28.2,68.2,42.4c17.1,10.6,13.5,25.1,5.2,38.9c-0.8,1.4-5.6,2-7.5,1.1c-8.2-3.8-16.1-8.2-23.9-12.7
		c-30.3-17.4-60.6-35-90.9-52.3c-4-2.3-8.2-5.6-13.1-0.8c-4.3,4.2-4.4,6.2,0.9,9.5c14.2,8.8,28.6,17.5,42.8,26.2
		c23,14.1,45.9,28.3,68.9,42.5c6.4,4,7.6,7.7,4.3,13.1c-3.5,5.8-7.9,7.1-14.4,3.4c-28.2-16.4-56.3-33.1-84.4-49.7
		c-9.2-5.4-18.4-10.8-27.6-16.2c-6.9-4.1-7.8-3.9-11.7,1.4c-4.3,5.9,1.1,7.6,4.5,9.7c24.9,15.9,49.8,31.6,74.7,47.3
		c11.3,7.1,22.7,14.1,34,21.3c7.1,4.5,8.2,8.2,4.7,13.6c-3.2,4.9-8.6,5.9-15,2.1c-33.7-20-67.2-40.1-100.8-60.2
		c-4.3-2.6-8.7-5-13-7.7c-3.3-2.1-5.8-1.9-7.8,1.6c-1.7,3.2-4.7,6.3,0.1,9.5c3.2,2,6.2,4.2,9.4,6.2c33.3,20.9,66.6,41.8,99.8,62.8
		c4.3,2.7,9.5,5.3,6.9,12c-2.8,7.1-8.2,9.2-14.9,5.2c-29-17.2-57.9-34.5-86.9-51.7c-8.8-5.3-17.8-10.3-26.3-16
		c-5.5-3.7-7.3,0-10,3.1c-3.3,3.9-0.5,6.1,2.4,7.9c11.8,7.6,23.7,15,35.5,22.5c24.7,15.7,49.5,31.3,74.1,47.1
		c3.9,2.5,8.1,4.8,5.8,10.7c-2.9,7.6-8.5,9.8-15.7,5.5c-29.9-17.7-59.8-35.4-89.6-53.2c-6.8-4.1-13.7-8.1-20.5-12.3
		c-7.8-4.8-8.1-4.7-12.2,0.9c-5,6.7,2.1,7.6,5.2,9.7c34.2,22.1,68.6,44,103,66c2.1,1.3,4.2,2.8,6,4.5c4.8,4.3,5.2,8.2,1.5,12.8
		c-3.7,4.6-7.6,5.2-13.3,1.8c-36.4-21.5-72.8-43.1-109.1-64.6c-1.6-1-3.3-1.8-4.8-2.9c-3.8-2.6-6.5-1.5-9.1,1.9
		c-2.7,3.6-0.4,5.6,2.4,7.4c13.1,8.7,26.1,17.4,39.2,26c22.6,14.7,45.4,29.2,67.8,44.1c3.2,2.1,7.1,5.7,7.4,8.9
		c0.3,3.2-2.7,7.7-5.6,10c-1.7,1.4-6.6,0.5-9.1-0.9c-30.4-17.4-60.5-35.1-90.8-52.6c-7.2-4.2-14.8-7.9-22-12.2
		c-4.5-2.6-7.7-1-9.3,2.6c-0.6,1.4,1.7,5,3.6,6.3c33.8,22.1,67.7,43.9,101.6,65.8c2.1,1.4,4.3,2.7,6.3,4.1c5.6,4.1,6.6,8.1,3.3,13.1
		c-3.5,5.4-7.9,6.4-14,2.8c-19-11.4-37.9-23.1-56.9-34.5c-17.9-10.8-35.8-21.6-53.9-32.2c-1.9-1.1-5.5-1.6-7.2-0.6
		c-5.5,3.3-5.3,7.2,0.2,10.8c22.1,14.3,44.2,28.6,66.4,42.9c13.2,8.5,26.5,16.8,39.5,25.6c3,2,6.3,5.7,6.5,8.8
		c0.2,3.3-2.4,7.8-5.3,10c-1.9,1.4-7.1,0.6-9.7-0.9c-22.3-13.3-44.3-27.1-66.3-40.7c-14.2-8.8-28.6-17.4-42.7-26.4
		c-5.2-3.3-7.6-1.4-10.8,2.7c-3.8,4.8-0.8,6.7,2.8,9c33.4,21.4,66.8,42.9,100.3,64.4c2.3,1.5,4.6,2.9,6.8,4.5
		c5.7,4.3,6.5,8.2,2.7,13.6c-3.3,4.8-7.9,5.8-13.7,2.3c-24.5-14.9-48.9-29.9-73.3-44.9c-11.6-7.1-23.1-14.3-34.7-21.5
		c-4-2.5-7.4-4.4-11.2,1c-3.5,5.1-2,7.6,2.8,10.7c34.8,22.5,69.4,45.1,104,67.9c2.7,1.8,6,5.7,5.7,8.2c-0.6,5.6-4.2,10.8-10.8,11.1
		c-4.7,0.3-9.9-0.3-14.1-2.2c-20.2-8.8-40.1-18.2-60.2-27.4c-11.7-5.4-23.5-10.5-36.9-9.1c-18.8,1.9-33.2,11.3-44.5,25.4
		C702.6,571.9,699,577.9,694.1,585.1z"/>
	<path class="st0" d="M812.6,823.5c4.3-33.4-9.2-60-29-84.4c-25.2-31-55.4-56.2-94.1-70.1c-13.7-4.9-28.4-7.6-42.9-9.9
		c-19.1-3-33.4-13.7-48.1-24.6c-43.7-32.5-81.1-71.5-120-108.9c-54.1-51.9-107.9-104.1-160.9-157.1C287,338,258.5,305.7,229,274.2
		c-0.8-0.9-2-1.8-2.3-2.9c-0.4-1.4-0.8-3.5,0-4.3c0.8-0.8,3.3-1,4.5-0.4c4.1,2,8.1,4.3,12,6.8c87.3,53.9,172.3,111,253.7,172.7
		c50.7,38.4,100.1,78.3,149.3,118.5c55,44.9,109.1,90.8,163.6,136.2c7.4,6.1,14.9,12.1,22.6,17.7c15.9,11.6,34.2,14.7,53.5,12
		c22.7-3.1,45.5-5.5,67.6,2.2c47.9,16.6,78,48.6,87.2,97.6c3.9,20.9,1.3,41.2-6.3,61.2c-6.8,18-2.7,32.4,13.8,43.5
		c11.3,7.6,24.2,13.2,36.3,19.7c2.6,1.4,5.3,2.5,7.8,4c8.1,5,11,12.2,7.9,19.2c-2.9,6.8-12.1,11.5-20.2,8.6
		c-13.8-5-27.3-10.7-40.4-17.1c-8.8-4.3-16.6-10.4-25.1-15.4c-13.9-8.2-29-10.4-44.4-5.2c-70.8,23.7-143.1-29.3-155.3-94.1
		C812.9,844.2,813.2,833.2,812.6,823.5z M1010.4,848.5c-1.6-8.2-2.4-16.5-4.8-24.4c-12.9-42.1-58.9-69.9-98.7-62.3
		c-28.9,5.5-56.7,30-60.5,63.1c-2.4,20.8,3.4,40.1,15.6,57.4c17.1,24.4,40.7,39.3,71.5,40.6C974.5,924.5,1010,889.1,1010.4,848.5z
		 M613.4,608.6c10.2-0.1,20.2-10,20-20c-0.1-9.3-10.5-19.8-19.8-20c-9.9-0.1-20.1,10-20.2,20C593.4,598.8,603.2,608.6,613.4,608.6z"
		/>
	<path class="st0" d="M407.4,1008.6c-56.7-1.4-98.2-39.4-104.5-94.1c-6.6-56.2,15-99.6,63.3-130.6c19.2-12.3,41.3-17.3,64.2-18.4
		c14-0.6,28.3-0.7,40.2-8.8c7.8-5.3,15.5-11.7,21-19.1c24.4-33.3,48.2-67,71.9-100.8c3.4-4.9,5.8-5.5,10.7-1.8
		c14.5,10.9,29.3,21.4,44.2,31.7c4.1,2.9,4.2,4.9,1.4,8.8c-22.9,31.1-45.5,62.4-63.7,96.4c-9.8,18.4-17.8,37.6-20.4,58.2
		c-1.2,9.3-0.3,19.2,1.3,28.5c11.3,66.8-37.3,129.3-96.6,144.7C429.6,1006,418.4,1006.9,407.4,1008.6z M333.4,897.1
		c0.9,6.7,1.4,13.4,2.7,19.9c7.4,38.5,44.9,64.1,83.9,57.4c55-9.4,93.3-62,83.3-115.2c-7.2-38.6-45.3-69.6-90.6-59.6
		C367.7,809.5,333,851.8,333.4,897.1z"/>
	<path class="st0" d="M649.6,550.7c-6.3-4.9-12.5-9.9-18.8-14.7c-33.1-25.3-65.7-51.2-99.6-75.6c-11.5-8.3-18.9-17.7-23.6-30.4
		c-26-70.2-52.7-140.2-78.5-210.5c-7.5-20.5-12.5-41.8-18.7-62.8c-0.2-0.6-0.6-1.2-0.5-1.8c0.4-2.4,1-4.9,1.5-7.3
		c1.9,1.4,4.4,2.3,5.6,4.1c15.8,24.4,32.1,48.4,47,73.4c46.4,78,92.3,156.2,138.1,234.5c16,27.3,30.8,55.3,46.1,83
		c1.2,2.2,1.9,4.6,2.8,7C650.6,549.9,650.1,550.3,649.6,550.7z"/>
	<path class="st0" d="M494.2,1257.2c1.5-1.6,2.9-3.2,4.6-4.6c0.7-0.6,2-0.4,3-0.7c11-2.7,11.6-3.4,11.6-14.5c0-16.5,0-33,0-49.5
		c0-1.9-0.2-3.8-0.3-7.2c-2.3,2.3-3.4,3.5-4.5,4.6c-2.9,3-5.5,6.2-8.6,8.9c-15,12.8-31.6,11.4-44.1-3.5
		c-26.2-31.1-16.6-86.6,18-104.9c14.4-7.6,28-8.2,41,2.9c1.2,1,4.5,0.8,6.2-0.1c2.3-1.2,3.9-3.7,6-5.4c1.1-0.9,3.4-1.9,4.1-1.4
		c1.1,0.7,1.9,2.8,1.8,4.1c-6.1,50.8-1.2,101.8-2.7,152.7c-0.3,9.6,0.7,10.3,9.9,13.6c2.1,0.7,3.5,3.1,5.2,4.7
		c-2.1,0.7-4.2,2.1-6.3,2.1c-14.3,0.2-28.7,0.1-43,0.1C495.4,1258.5,494.8,1257.9,494.2,1257.2z M513.4,1137.3
		c0-8.1,0.3-16.3-0.2-24.4c-0.2-3.2-1.5-6.9-3.6-9.4c-11.4-13.7-32-12.5-42.6,2.6c-10.7,15.4-11.3,32.5-7.6,50
		c2.1,10,6.5,19,14.8,25.7c4.3,3.5,9.1,6.1,15.1,4.2c9.5-3,16.2-9.7,21.7-17.2c2.4-3.3,2.1-8.8,2.4-13.3
		C513.7,1149.5,513.4,1143.4,513.4,1137.3z"/>
	<path class="st0" d="M76.9,1120.9c1.3,0.3,2.1,0.3,2.9,0.6c24.9,8.5,41.5-11.3,43.2-27.8c2.7-27.4-13.6-45.9-46.4-43.6
		c-5,0.3-4.3,3.4-4.3,6.4c0,29.2,0,58.3,0,87.5c0,12.4,0.3,24.9-0.2,37.3c-0.2,5.7,2.3,8.3,7.3,9.7c2.8,0.8,5.8,1.2,8.5,2.3
		c1.3,0.5,2.1,2.1,3.2,3.2c-1.4,1-2.6,2.5-4.1,2.7c-3.1,0.4-6.3,0.1-9.5,0.1c-11,0-22,0.1-33-0.1c-1.9,0-3.8-1.5-5.8-2.3
		c1.4-1.4,2.5-3.6,4.3-4.2c11.4-4.4,11.4-4.3,11.4-16.2c0-38.3,0-76.7,0-115c0-9.9,0-9.9-10-7.9c-5.2,1-7.3-0.5-6.1-4.9
		c0.3-1.2,1.9-2.7,3.2-3c20.8-5.4,41.9-8.9,63.2-4.8c27.9,5.4,41.4,28.5,34,56.4c-6.5,24.4-29.3,39.7-52.2,35.2
		C78.4,1130.8,77,1129.3,76.9,1120.9z"/>
	<path class="st0" d="M1090,1052.3c-3.1,0.5-6.2,1.4-9.2,1.3c-1.9,0-4.8-1.1-5.5-2.5c-1.5-2.8,0.1-5,3.5-5.7
		c7.4-1.5,14.8-3.6,22.3-4.4c10.9-1,21.9-1.9,32.8-1.3c29.7,1.7,46.6,21.9,43.1,50.6c-3,25.2-23.8,43.9-47.6,42.7
		c-2.5-0.1-5-0.6-7.5-1c-6.2-1-8.8-4.7-8.4-11.1c1.5,0.3,2.7,0.4,3.8,0.8c23.4,7.8,41.2-10.2,42.8-29.2c2.4-27.9-17.7-46-46.5-42.5
		c-4.8,0.6-4.4,3.4-4.4,6.4c0,22.6,0,45.3,0,67.9c0,18.4,0,36.7,0,55.1c0,8.9,0.8,9.5,9.7,12.3c3.3,1.1,9.3-0.7,8.8,5.2
		c-0.1,1.1-6.3,2.2-9.8,2.3c-12.2,0.3-24.5,0.2-36.8,0c-1.8,0-3.6-1.7-5.4-2.6c1.4-1.3,2.5-2.9,4.2-3.8c2.4-1.3,5.4-1.6,7.5-3.1
		c1.8-1.3,3.8-3.7,3.8-5.6c0.2-43.2,0.1-86.5,0-129.7C1091,1054,1090.6,1053.6,1090,1052.3z"/>
	<path class="st0" d="M664.7,1184c-1.3,3.1-1.5,5.8-3,6.8c-5.4,3.9-11.1,7.5-16.9,10.7c-4.9,2.7-8.8,0.9-10.4-4.1
		c-1.7-5.2-2.6-10.6-4.1-16.7c-1.5,1.3-2.6,2.2-3.8,3.2c-6.1,4.9-11.7,10.8-18.5,14.7c-18.7,10.7-36.4,2.6-40.4-17.9
		c-0.9-4.8-1.1-9.7-1.2-14.6c-0.2-20-0.2-40-0.4-60c-0.1-9-0.9-9.6-9.9-12.1c-1.5-0.4-2.7-2-4.1-3c1.3-1.1,2.4-2.6,3.9-3.1
		c6.6-2.2,13.4-3.8,19.8-6.2c4-1.5,5.6,0,6.6,3c0.6,1.9,0.5,4,0.5,6.1c0,23.1-0.1,46.1,0.1,69.2c0,5.3,0.7,10.6,2,15.7
		c2.6,10.4,10.9,14.6,21.3,10.9c10.1-3.6,17.1-11.1,23.6-18.9c1-1.3,1.2-3.5,1.2-5.2c0-18.6,0-37.1-0.3-55.7
		c-0.1-9.2-1.6-10.7-10.9-12.9c-1.6-0.4-2.8-1.8-4.2-2.8c1.5-1.1,2.8-2.7,4.5-3.3c6.4-2.1,13.1-3.5,19.3-6c5.7-2.3,7.3,0.7,8.3,4.8
		c0.4,1.5,0.1,3.2,0.1,4.9c0,26.5,0,53,0,79.6c0,1.6,0,3.3,0,4.9c0.1,8.9,1.8,14.1,12.7,8.6C661,1184.2,661.7,1184.3,664.7,1184z"/>
	<path class="st0" d="M430.6,1185c-0.9,2.1-1.2,4.9-2.8,6.1c-4.8,3.6-9.9,6.9-15.2,9.8c-6.4,3.5-10.2,1.9-12.5-4.9
		c-0.9-2.5-1.3-5.2-1.8-7.8c-0.5-2.3-0.8-4.7-1.5-9c-3.7,4-5.9,7.5-9,9.5c-7.4,4.8-14.8,10.8-23.1,13.1
		c-15.9,4.4-27.6-4.2-30.6-20.9c-1.1-6.4-1.6-13-1.7-19.5c-0.2-18.6,0-37.1-0.1-55.7c0-8.6-1.1-9.6-9.5-11.8
		c-1.7-0.4-2.9-2.2-4.4-3.4c1.4-1,2.6-2.4,4.2-2.9c6.4-2.1,13-3.6,19.2-6.1c4.3-1.7,6,0,6.9,3.4c0.5,1.7,0.3,3.6,0.3,5.5
		c0.1,24.3,0.1,48.5,0.3,72.8c0,4,0.8,8.1,1.9,12c2.8,10.8,11,14.9,21.8,11c9.8-3.6,16.7-10.9,23-18.7c1.1-1.4,1.2-3.8,1.2-5.8
		c0.1-17.9,0.1-35.9,0-53.8c0-10.3-1.3-11.7-11.4-14.3c-1.4-0.4-2.5-1.7-3.7-2.6c1.2-1.1,2.2-2.8,3.6-3.3c7-2.3,14.2-4.1,21.1-6.5
		c3.5-1.2,5.4,0,6.3,2.8c0.7,2.1,0.8,4.4,0.8,6.6c0.1,27.9,0.2,55.9,0.3,83.8c0,1,0,2,0.1,3.1c0.6,9.2,2.4,10.4,11.3,7.3
		c1-0.3,1.9-0.7,2.9-1C429.2,1184.3,429.9,1184.7,430.6,1185z"/>
	<path class="st0" d="M985.6,1183.3c-1.9,1.7-3.1,3.1-4.5,4c-6.5,4.5-12.6,9.9-19.7,13c-16.7,7.4-32.4-2-34.2-19.7
		c-2-20.1,9-37.1,29-43.7c8.2-2.7,16.7-4.5,25.1-6.3c3.6-0.8,5.2-2.1,5-5.6c-0.2-5.7,0.1-11.4-0.4-17.1c-0.9-9.5-6.6-14.7-15.9-15
		c-9.7-0.4-17.7,5.4-19.4,14.1c-1,5.2-12.6,12-17.3,9.5c-1.6-0.8-2.6-5.1-1.8-7.1c1.5-3.7,4.2-7.1,6.9-10.1
		c8.2-8.9,18.4-14.9,30.4-17.9c19.7-4.9,33.9,5.1,34.2,24.8c0.3,22.4,0.1,44.9,0.1,67.3c0,1.8-0.1,3.7,0,5.5
		c0.4,7.3,2.5,8.6,9.6,6.7c1.8-0.5,4,0.2,5.9,0.4c-0.7,1.9-0.9,4.5-2.3,5.6c-4.8,3.6-9.9,7-15.3,9.7c-6.5,3.3-10.3,1.5-12.5-5.3
		C987.2,1192.1,986.6,1188.1,985.6,1183.3z M986.1,1139.1c-5.2,1.1-9.2,1.8-13,2.9c-4,1.1-8.1,2.2-12,3.9
		c-12.5,5.5-19.2,19.7-15.3,31.5c2.4,7.3,8.3,11.3,15.5,8.3c8-3.2,15.2-8.4,22.6-12.9c1.1-0.6,2-2.3,2-3.6
		C986.2,1159.7,986.1,1150,986.1,1139.1z"/>
	<path class="st0" d="M691.2,1138.8c0.8,16.3,3.7,31,16.7,42c8.8,7.4,19,7.9,29,2.9c5.9-2.9,10.8-7.7,16.4-11.3
		c1.2-0.8,4-1.2,4.7-0.5c1,1,1.7,3.9,1,4.7c-9.9,11.6-18.8,24.5-36.5,26.2c-13.5,1.3-24.5-3.1-33.2-13c-10.4-12-14.3-26.2-14.7-41.5
		c-0.5-18.9,3.9-36.7,17.1-51.2c5.1-5.6,12-10.4,19-13.8c15.6-7.4,33.3-2,41.3,12.9c4.2,7.8,6.5,16.7,8.3,25.4
		c2.1,9.9-4.5,16.7-15.2,16.8c-15.4,0.1-30.9,0-46.3,0C696.5,1138.5,694.2,1138.7,691.2,1138.8z M691.9,1126.6
		c2.8,0.2,5,0.4,7.2,0.4c9.9,0,19.8,0,29.7,0c15,0,16.6-2.2,12.3-16.3c-0.6-1.9-1.4-3.9-2.3-5.7c-6.5-12.4-21.3-15.5-32.5-6.8
		C697.2,1105.3,693.8,1115.1,691.9,1126.6z"/>
	<path class="st0" d="M175.3,1138.8c1,17,4,32.7,18.7,43.4c9.5,6.9,20,5.8,29.8,0.2c5-2.9,9.3-7,14-10.4c1.1-0.7,3.7-1.1,4.2-0.5
		c1,1.2,2,3.9,1.3,4.7c-9.4,11.1-17.9,23.7-34.4,26.1c-17.3,2.5-31.2-3.8-40.3-19.3c-12.2-20.6-12.6-42.4-5.2-64.5
		c5.3-16,15.1-28.7,31.5-35.6c15.8-6.6,32.3-1.6,41.2,12.7c6,9.5,8.6,19.9,8.8,30.9c0.1,6-7.6,11.8-15.8,11.9
		c-15.4,0.1-30.8,0-46.3,0C180.5,1138.5,178.3,1138.7,175.3,1138.8z M201,1127c6.5,0,13.1-0.2,19.6,0c5.1,0.2,7.1-2.2,6.2-6.7
		c-1.1-5.2-1.8-10.6-4.1-15.2c-6.3-12.8-21.6-15.6-32.9-6.4c-7.1,5.8-10.4,13.7-12.8,22c-1.3,4.4-0.2,6.5,5,6.3
		C188.3,1126.8,194.7,1127,201,1127z"/>
	<path class="st0" d="M1287.1,1099.6c0,26.9,0.3,53.9-0.2,80.8c-0.1,7,2.8,10.2,9.2,11.6c1.2,0.3,2.7,0.4,3.6,1.1
		c1.4,1.1,2.6,2.6,3.8,3.9c-1.5,0.8-3,2.2-4.6,2.2c-13.3,0.2-26.6,0.2-39.9,0c-1.6,0-3.1-1.8-4.7-2.7c1.2-1.1,2.3-2.6,3.7-3.4
		c1.6-0.9,3.6-1.1,5.4-1.6c5.2-1.4,7.3-4.4,7.3-9.8c-0.2-47.1-0.1-94.3-0.1-141.4c0-2.2-0.3-4.5-0.4-6.7c-0.2-6.2-3.3-9.8-9.9-10.7
		c-1.7-0.2-3.2-1.9-4.8-3c1.5-1.3,2.8-3.2,4.6-3.9c6-2.4,12.4-4.1,18.4-6.6c5.6-2.2,8.2-0.9,8.5,5.1c0.2,3.1,0,6.1,0,9.2
		C1287.1,1049,1287.1,1074.3,1287.1,1099.6z"/>
	<path class="st0" d="M292.8,1099.3c0,27.1,0.2,54.2-0.2,81.3c-0.1,6.7,2.8,9.8,8.8,11.2c1.6,0.4,3.4,0.6,4.8,1.5
		c1.2,0.7,1.9,2.2,2.9,3.4c-1.2,0.9-2.5,2.4-3.7,2.5c-13.9,0.2-27.9,0.2-41.8,0c-1.2,0-2.5-1.6-3.7-2.4c0.9-1.2,1.7-3.3,2.8-3.4
		c13.4-1.2,13.8-9.7,13.7-20c-0.4-44.2-0.2-88.5-0.2-132.7c0-2.2,0-4.5-0.1-6.7c-0.2-6.4-3.1-10.3-10.1-11.2c-1.7-0.2-3.3-1.9-4.9-3
		c1.5-1.3,2.9-3.2,4.7-3.9c6.4-2.6,13.1-4.5,19.4-7.2c4.5-1.9,6.3,0.1,7.4,3.7c0.4,1.5,0.2,3.2,0.2,4.9
		C292.9,1044.7,292.9,1072,292.8,1099.3z"/>
	<path class="st0" d="M807.4,1108.4c4.8-7,8.6-13.6,13.5-19.4c8-9.4,17.8-11.3,28.3-6.6c3.7,1.6,5.9,4.1,5.1,8.1
		c-1.3,7.2-2.7,14.4-4.5,21.5c-0.3,1.4-2.4,2.4-3.6,3.6c-1.1-1.3-2.6-2.5-3.1-4c-1.8-5.7-2.7-12.4-10.1-13.4
		c-7.5-1-11.1,5.3-14.2,10.5c-7.4,12.3-12.7,25.2-12,39.9c0.5,10.8,0.5,21.6-0.1,32.4c-0.3,6.2,2.7,9,8.2,10.4
		c2.4,0.6,5,0.9,7.3,1.9c1.3,0.5,2.2,2,3.2,3.1c-1.4,1-2.7,2.6-4.1,2.7c-5.5,0.3-11,0.1-16.5,0.1c-8.2,0-16.5,0.1-24.7-0.1
		c-1.7-0.1-3.4-1.6-5-2.4c1.3-1.4,2.3-3,3.9-4c1.3-0.9,3.1-1.2,4.7-1.6c4.6-1.4,6.6-4.1,6.5-9c-0.2-23.8-0.1-47.7-0.1-71.5
		c0-11.3-0.6-11.8-11.7-15.2c-1.2-0.4-3.2-1.7-3.1-2.3c0.2-1.3,1.3-3.2,2.5-3.6c7.2-2.9,14.4-6,21.8-8.1c4.6-1.3,5.4,2.9,5.7,6.1
		c0.5,6.1,0.7,12.2,1.1,18.3C806.5,1106.5,806.9,1107.2,807.4,1108.4z"/>
	<path class="st0" d="M1226.6,1133.6c0,15.5,0.3,31-0.2,46.5c-0.2,6.8,2.6,10.3,9,11.9c1.2,0.3,2.6,0.5,3.5,1.2
		c1.1,0.9,1.8,2.3,2.7,3.5c-1.3,0.8-2.5,2.4-3.8,2.4c-13.1,0.2-26.2,0.2-39.3,0c-1.3,0-2.6-1.5-3.9-2.3c1-1.3,1.8-3.6,3-3.8
		c11.5-1.9,12.8-9.1,12.5-18.8c-0.7-21.8-0.3-43.6-0.5-65.5c-0.1-9.1-1.5-10.5-10.7-13.1c-1.6-0.5-2.9-1.9-4.3-2.9
		c1.3-1.3,2.5-3.2,4.1-3.8c6.8-2.7,13.9-4.9,20.7-7.5c6-2.3,7.1-1.9,7.1,4.3C1226.7,1101.8,1226.6,1117.7,1226.6,1133.6z"/>
	<path class="st0" d="M1347.7,1133.9c0,15.7,0.3,31.4-0.2,47.1c-0.2,6.1,2.6,9,8,10.7c2,0.6,4.1,1.2,5.8,2.3
		c0.7,0.5,1.2,2.4,0.7,3.2c-0.5,1-2,2-3.1,2c-13.1,0.1-26.2,0.2-39.3,0c-1.3,0-2.5-1.6-3.7-2.4c0.9-1.2,1.6-3.3,2.7-3.5
		c12.5-1.9,12.8-10.2,12.5-19.9c-0.6-22-0.4-44-0.4-66c0-6.5-2.8-10.3-9.7-11.4c-1.9-0.3-3.5-2.2-5.2-3.4c1.7-1.3,3.2-3,5.1-3.7
		c6.6-2.6,13.4-4.8,20.1-7.4c5.8-2.2,6.6-1.8,6.7,4.1C1347.8,1101.7,1347.7,1117.8,1347.7,1133.9
		C1347.7,1133.9,1347.7,1133.9,1347.7,1133.9z"/>
	<path class="st0" d="M897.2,1134.9c0,15.1,0.4,30.2-0.2,45.3c-0.3,6.9,2.8,10.2,9,11.9c1.2,0.3,2.6,0.5,3.5,1.3
		c1.1,0.9,2.6,2.5,2.5,3.5c-0.2,1-2.2,2.4-3.5,2.5c-13.1,0.2-26.2,0.2-39.3,0c-1.2,0-3.3-1.5-3.4-2.5c-0.2-1.1,1.3-3.3,2.4-3.5
		c12.5-1.8,12.9-10,12.7-19.8c-0.6-21.6-0.2-43.2-0.5-64.8c-0.1-9-1.6-10.2-10.4-12.7c-1.7-0.5-3-2.2-4.4-3.4
		c1.5-1.2,2.8-2.9,4.5-3.6c6.8-2.7,13.9-4.8,20.7-7.6c4.8-2,6.6-1.1,6.5,4C897.2,1101.9,897.2,1118.4,897.2,1134.9z"/>
	<path class="st0" d="M1230,1046.4c-1.4,2.4-3.1,7.4-6.5,10.9c-2,2.1-7.1,2.8-10.2,1.9c-2.3-0.7-4.8-4.6-5.1-7.4
		c-0.5-4.1,0.1-8.6,1.5-12.4c2.3-6.3,8-9.3,13.2-7.8C1229.2,1033.4,1229.6,1038.6,1230,1046.4z"/>
	<path class="st0" d="M1327.4,1047.2c2.5-4.5,4.2-9.7,7.7-13.3c5.5-5.6,14-2.8,15.1,4.9c0.6,4.3,0.1,9-1.2,13.1
		c-2,6.2-7.9,9.4-13.1,8.1C1329.2,1058.3,1329.1,1053,1327.4,1047.2z"/>
	<path class="st0" d="M878.5,1048.4c-0.1-6,1.4-11.3,6.6-15.1c5.7-4.2,13.1-2.3,14.4,4.4c0.9,4.5,0.3,9.7-1.1,14.2
		c-1.9,6.2-7.8,9.4-13,8.1C879,1058.4,878.6,1053.4,878.5,1048.4z"/>
</g>
</svg>
