<?xml version="1.0" encoding="utf-8"?>
<!-- Generator: Adobe Illustrator 25.0.1, SVG Export Plug-In . SVG Version: 6.00 Build 0)  -->
<svg version="1.1" id="Capa_3" xmlns="http://www.w3.org/2000/svg" xmlns:xlink="http://www.w3.org/1999/xlink" x="0px" y="0px"
	 viewBox="0 0 1417.3 1417.3" style="enable-background:new 0 0 1417.3 1417.3;" xml:space="preserve">
<style type="text/css">
	.st0{fill:#FFFFFF;}
</style>
<g>
	<path class="st0" d="M70.3,465.3c0.6-3.5,1-7.1,1.7-10.6c6-32.2,32.4-55.9,65.1-56.8c32-0.9,64-0.3,96-0.3
		c31.6,0,63.3-0.6,94.8,0.3c65.6,2,117.6,53.7,121.8,118.7c4.5,68.9-41.7,126.8-108,136.8c-6.7,1-13.5,1.4-20.3,1.4
		c-34.8,0.1-69.6,0.1-104.5,0.1c-2.2,0-4.3,0-7.4,0c0,94.9,0,189.3,0,284.4c3,0,5.3,0,7.6,0c57.8,0,115.7,0.1,173.5,0.1
		c35.1,0,63.9,26,68.4,61.5c4.5,35.7-17.7,69.7-51.1,78c-5,1.2-10.3,1.9-15.4,1.9c-83.8,0.1-167.7,0-251.5,0.1
		c-20.4,0-36.4-9.2-50.6-22.7c-4.2-4-7.6-8.8-11.6-12.9c-5.7-5.8-6.2-13.6-8.5-20.7c0-156.4,0-312.8,0-469.2
		c0.2-12.9,0.6-25.8,0.6-38.7c0-16.3-0.4-32.6-0.6-48.9C70.3,466.9,70.3,466.1,70.3,465.3z M257.1,571c6.6-1.9,13.7-3,19.8-5.9
		c20.6-9.6,31.3-32.2,27.4-56.7c-4.6-29-34.7-48.2-61.7-38.9c-19.8,6.9-30.7,21.8-33.6,42.2C204.6,543.4,229.2,570.6,257.1,571z"/>
	<path class="st0" d="M1247.3,396.9c6.2,1.4,12.6,2.4,18.6,4.4c44.6,14.8,71,46.2,78.9,91.7c8,46.2-5.6,86.3-42.7,116
		c-48.2,38.5-116.3,28.4-152.9-21.3c-44.8-60.8-24.2-149.6,42.3-180.6c10.3-4.8,21.9-6.9,33-10.3
		C1232,396.9,1239.6,396.9,1247.3,396.9z M1236.1,550.7c17.4,0,31.3-14.8,31.3-33.3c0-18.5-13.9-33.4-31.3-33.3
		c-17.6,0-31.3,14.6-31.3,33.3C1204.8,535.9,1218.6,550.6,1236.1,550.7z"/>
	<path class="st0" d="M579.5,396.9c6,1.5,12.1,2.5,17.9,4.5c43.2,14.3,69.2,44.5,78,88.4c9.1,45.3-3.1,85.2-38.3,116
		c-47.7,41.7-118.3,33.3-156.3-17.5c-44.6-59.6-25.8-147.4,39-179.8c11.1-5.5,23.7-7.9,35.6-11.7
		C563.5,396.9,571.5,396.9,579.5,396.9z M536.1,517.1c-0.1,18.6,13.6,33.4,31,33.6c17.4,0.1,31.4-14.6,31.5-33.1
		c0.1-18.6-13.7-33.5-31.1-33.5C550,483.9,536.2,498.5,536.1,517.1z"/>
	<path class="st0" d="M898.6,804.3c-1.4,35.6-16.3,69.8-50.7,93.6c-46.2,31.9-107.3,22.9-143.2-20.4c-36.5-44.1-37.1-110-1.4-154.8
		c52.7-66.1,153.3-50.1,186,29.5C895.4,767.2,898.4,782.8,898.6,804.3z M818.7,802.1c0.1-18.8-13.5-33.5-31-33.5
		c-17.4-0.1-31.5,14.7-31.6,33.1c-0.1,18.4,13.8,33.4,31.2,33.5C804.9,835.3,818.7,820.9,818.7,802.1z"/>
	<path class="st0" d="M347.4,917c-34.2-1.1-62.3-14.9-83.6-41.5c-36-44.9-34.9-111.4,2.1-155.2c38.2-45.2,102.7-51.7,149.1-15.1
		c67.3,53.1,55.6,164.2-21.2,201.2C379.2,913.5,363.8,917.2,347.4,917z M379.4,802c0-18.8-13.6-33.4-31.1-33.4
		c-17.4,0-31.4,14.8-31.5,33.2c-0.1,18.3,14,33.3,31.3,33.4C365.7,835.3,379.4,820.8,379.4,802z"/>
	<path class="st0" d="M465.4,799.2c0-53.6,34.1-100.5,83.1-113.3c34.9-9.2,66.6-1.6,94.6,21c5.1,4.1,9.9,8.7,14.5,13.5
		c17.6,18.3,15.6,48.5-4,64.5c-16.8,13.7-40.8,10.9-55.2-6.4c-10.3-12.4-25.3-15.7-38-8.2c-13.8,8.1-19.9,26.1-14,41.4
		c5.7,14.8,20.1,23.3,34.9,19.4c5.4-1.4,11.5-4.8,14.7-9.2c12.6-17.4,30.5-24.3,48.4-17.3c17.8,7,28.8,27,25.9,46.8
		c-1.5,10.6-6.8,19.1-13.5,26.9c-49.6,57.7-138.4,48.2-175.6-18.9C470.7,840.7,465.3,820.6,465.4,799.2z"/>
	<path class="st0" d="M987.8,548.9c3.1,0,5.5,0,7.9,0c31.8,0,63.6-0.2,95.4,0.1c19.8,0.1,36.1,15.4,38.4,35.1
		c2.5,21.3-9.4,40.8-28.2,45.9c-4,1.1-8.3,1.4-12.4,1.4c-45.6,0.1-91.2,0.1-136.8,0c-24.3,0-41.4-16.5-41.5-40.8
		c-0.3-50.8-0.3-101.5,0-152.3c0.2-27.9,24.8-46.7,49.8-39c16.1,5,27.4,21.1,27.5,39.6c0.1,34.2,0,68.4,0,102.5
		C987.8,543.5,987.8,545.7,987.8,548.9z"/>
	<path class="st0" d="M762,548.9c10.2,0,19.3,0,28.5,0c25,0,50-0.2,75,0.1c19.7,0.2,35.8,15.5,38.2,35.4
		c2.5,21.1-9.6,40.7-28.5,45.7c-4,1.1-8.3,1.3-12.5,1.3c-45.4,0.1-90.8,0.1-136.2,0c-24.8,0-41.9-16.9-41.9-41.7
		c-0.1-50.2-0.1-100.3,0-150.5c0.1-28.4,24.8-47.9,50.2-39.9c16.1,5.1,27.2,21.2,27.3,39.7c0.1,34.2,0,68.4,0,102.5
		C762,543.8,762,545.9,762,548.9z"/>
</g>
</svg>
