<?xml version="1.0" encoding="utf-8"?>
<!-- Generator: Adobe Illustrator 25.0.1, SVG Export Plug-In . SVG Version: 6.00 Build 0)  -->
<svg version="1.1" id="Capa_3" xmlns="http://www.w3.org/2000/svg" xmlns:xlink="http://www.w3.org/1999/xlink" x="0px" y="0px"
	 viewBox="0 0 1417.3 1417.3" style="enable-background:new 0 0 1417.3 1417.3;" xml:space="preserve">
<style type="text/css">
	.st0{fill:#FFFFFF;}
</style>
<g>
	<path class="st0" d="M676.5,1282.6c-12.7,0-25.5,0.5-38.2-0.1c-14.1-0.7-28.2-1.9-42.1-3.9c-21.8-3.1-43.6-6.5-65.2-11
		c-14-2.9-27.6-7.7-41.2-12.2c-15.8-5.1-31.7-10-47-16.4c-18-7.5-35.4-16.3-52.9-24.9c-10.8-5.3-21.4-11.1-31.7-17.3
		c-10.5-6.3-20.7-13.1-30.8-20.1c-10.7-7.4-21.4-15-31.5-23.2c-14.2-11.5-28.1-23.5-41.6-35.8c-10.3-9.3-20.3-18.9-29.7-29.1
		c-11-12.1-21.8-24.6-31.5-37.8c-14.9-20.3-29.5-40.9-43-62.1c-15.6-24.6-29.2-50.3-39.6-77.6c-8.9-23.4-16.9-47.1-24.6-70.8
		c-10-31-15.7-63-19.3-95.3c-4.1-37.6-4.5-75.5-1.8-113.3c4.1-56.4,15.8-111.2,35.3-164.2C126,397.8,162.8,334.5,212,278.5
		c51.5-58.6,112-105.6,181.3-141.2c57.9-29.7,119.1-48.9,183.2-59.1c46.1-7.3,92.5-8.1,139-4.8c49.9,3.5,98.6,13.5,145.9,29.6
		c80.7,27.4,152.7,69.7,215.8,127.2c32,29.2,60.6,61.5,85.7,96.7c21.2,29.7,39.7,61,54.4,94.5c9.4,21.5,18.2,43.2,26.3,65.2
		c4.8,13,8.2,26.5,11.3,40c4.7,20.7,9,41.5,12.5,62.4c2.9,17.2,5.6,34.7,6,52.1c0.7,29.7-0.2,59.4-0.9,89.2
		c-0.3,11.9-1.3,23.9-3.5,35.6c-4,21.3-9,42.3-13.7,63.5c-4.9,22.1-12.3,43.4-21,64.3c-5.6,13.4-11.2,26.9-17.2,40.2
		c-3.3,7.4-7.4,14.4-11.2,21.6c-4.5,8.6-8.9,17.3-13.7,25.7c-6,10.4-12.4,20.6-18.6,31c-5.3,8.9-10.2,18.1-15.8,26.9
		c-4.6,7.2-9.6,14.2-15.2,20.7c-11.4,13.2-22.7,26.4-35,38.7c-20.6,20.6-42,40.3-65.9,57.1c-12.9,9-25.4,18.6-38.2,27.7
		c-4.8,3.4-10,6.1-15,9.1c-5.8,3.5-11.6,7.1-17.5,10.5c-4.1,2.3-8.5,4-12.6,6.2c-13,6.6-25.7,13.6-38.9,19.9
		c-8.5,4-17.8,6.2-26.1,10.4c-14.9,7.7-31.2,11.5-46.5,18c-4.2,1.8-9.1,1.9-13.7,2.9c-22.8,5-45.1,12.1-68.4,15
		c-14.1,1.8-27.9,5.3-42,7.2c-7.5,1-15.3,0.4-22.9,0.5c-7.8,0.1-15.7,0-23.5,0C676.5,1282.7,676.5,1282.7,676.5,1282.6z
		 M667.4,1249.3c317.2-0.3,580.9-256.8,574.8-584.1c-5.8-315.4-256.6-553.7-552.4-563.1C348.8,91.2,93.9,361.7,93.5,674.5
		C93.1,993.8,349.9,1247.9,667.4,1249.3z"/>
	<path class="st0" d="M980.7,133.8c1.8-0.2,2.7-0.5,3.2-0.2c6.7,3.6,13.3,7.2,20,10.9c4.7,2.6,9.5,5.2,14.2,7.9
		c8.9,5.2,18.1,9.9,26.5,15.8c9.7,6.7,18.7,14.5,28,21.7c7.1,5.5,14.4,10.6,21.2,16.5c7.5,6.5,14.7,13.6,21.7,20.7
		c10.6,10.7,20.4,22.2,31.4,32.5c12.3,11.4,21.8,24.9,32.4,37.6c5.2,6.2,10.4,12.6,15.1,19.3c7.6,10.7,14.9,21.6,22,32.6
		c6.3,9.9,12.5,19.9,18.3,30.1c4.5,7.9,8.2,16.3,12.4,24.5c4,7.8,8.4,15.3,12.1,23.2c2.8,5.9,4.7,12.3,7.2,18.4
		c2.9,7.2,5.9,14.3,8.7,21.5c1.7,4.5,3.3,9.1,4.7,13.7c2.2,7.6,4.1,15.3,6.2,22.9c1.7,6.2,3.4,12.3,5,18.5c3.2,12.5,6.9,24.8,8.3,38
		c0.9,9,2.8,18,3.4,27.1c0.2,3.4,0.5,6.1-3.4,6.5c-3.7,0.4-4.9-2.1-5.2-5.6c-1.2-11.8-2.1-23.7-4.2-35.3c-1.6-9.1-4.9-17.9-7.2-26.8
		c-2-7.9-3.2-16-5.6-23.7c-4.5-14.6-8.9-29.3-14.5-43.5c-5.2-13.3-11.9-26.1-17.9-39.1c-3.9-8.4-7.3-17.1-11.8-25.1
		c-7.4-13.2-15.2-26-23.2-38.8c-7.3-11.7-14.8-23.4-22.9-34.6c-6.8-9.6-14.3-18.8-21.9-27.7c-11.5-13.5-23.1-27-35.2-40
		c-10.2-11-20.9-21.6-32.1-31.7c-13.1-11.8-26.7-23-40.5-34c-12.2-9.8-24.7-19.3-37.6-28.3c-9.3-6.5-19.4-11.7-29.1-17.7
		C987.2,139.4,984.5,136.8,980.7,133.8z"/>
	<path class="st0" d="M953.2,1240.6c2.5-1.6,4.9-3.2,7.5-4.7c12.7-7.4,25.6-14.5,38-22.3c12.1-7.7,23.8-15.9,35.5-24.3
		c12.2-8.7,24.5-17.3,36-27c15.1-12.6,29.8-25.7,43.9-39.4c14.6-14.2,28.8-29,42.2-44.4c10.5-11.9,19.9-24.8,29.3-37.7
		c10.6-14.6,21.1-29.4,30.7-44.7c7.7-12.2,14.4-24.9,20.9-37.8c6.9-13.7,13.3-27.7,19.4-41.8c4-9.4,7.1-19.3,10.5-29
		c4.1-11.5,8.5-22.9,12-34.6c2.3-7.6,3.4-15.6,5-23.5c1.7-8,3.3-16,5.4-23.8c0.4-1.6,3.3-2.6,5.1-3.8c1,1.8,3,3.7,2.7,5.3
		c-1.8,10.5-4.1,21-6.3,31.5c-1.1,5.3-2.1,10.7-3.6,16c-2.9,10-6.1,20-9.3,29.9c-1.4,4.4-3,8.8-4.7,13.2c-3.2,8.5-6.3,17.1-9.9,25.5
		c-6.2,14.3-12.7,28.4-19.5,42.5c-2.5,5.2-6,10-9,15c-5.6,9.5-10.8,19.1-16.7,28.4c-5.7,8.9-11.9,17.6-18.1,26.2
		c-6.5,9-12.9,18.1-19.8,26.7c-9.4,11.7-18.7,23.5-28.9,34.5c-14.1,15.2-28.5,30-43.6,44.2c-12.6,11.9-25.7,23.2-39.5,33.7
		c-15.6,11.9-32,22.8-48.4,33.5c-11.8,7.7-24.1,14.8-36.5,21.6c-7.8,4.3-16.1,7.6-24.2,11.3c-1.7,0.8-3.6,1-5.3,1.5
		C953.7,1241.7,953.4,1241.1,953.2,1240.6z"/>
	<path class="st0" d="M46.8,769c5.8-0.7,7.7,0.5,8.4,5.9c1.9,14.8,4.5,29.6,7.5,44.2c2.5,12.7,5.5,25.3,8.9,37.7
		c2.1,7.6,5.3,14.8,8,22.3c3.3,9.3,6,18.9,9.8,28c5.9,13.9,12.3,27.6,18.8,41.3c5.7,11.9,11.3,23.9,17.9,35.4
		c6.9,12,14.7,23.5,22.4,35.1c7,10.5,13.9,21.1,21.7,31c9.9,12.7,20.6,24.7,30.9,37c5.6,6.7,10.9,13.7,16.9,19.9
		c9.7,10.1,19.7,19.8,29.8,29.4c9.6,9.1,19.4,18.1,29.5,26.7c9.5,8.1,19.5,15.6,29.4,23.1c7.2,5.5,14.5,11,22,16
		c8.5,5.7,17.4,10.9,26,16.4c4.5,2.9,8.8,6,13.6,9.2c-10.2,1.2-16.6-5.4-23.8-9.5c-13.6-7.8-27.1-16.1-40.1-24.8
		c-10-6.7-19.8-14-29-21.7c-16.1-13.6-31.9-27.4-47.3-41.8c-8.9-8.3-16.8-17.6-25-26.6c-9.2-10.1-18.4-20.1-27.2-30.6
		c-6.6-7.9-12.6-16.3-18.6-24.7c-7.8-11.1-15.6-22.2-22.9-33.6c-6.5-10.1-12.3-20.6-18.2-31c-4.5-7.9-9.1-15.7-13.3-23.8
		C99,952,95.5,944.2,92,936.4c-4-9-7.9-18.1-11.5-27.3c-3-7.6-5.4-15.4-8.1-23.1c-2.6-7.3-5.5-14.4-7.9-21.8
		c-2.1-6.3-3.9-12.7-5.3-19.1c-2-8.9-3.6-17.9-5.2-26.9c-2.2-12.2-4.4-24.5-6.3-36.8C47,777.5,47.1,773.4,46.8,769z"/>
	<path class="st0" d="M386.3,113.1c-18.9,11.8-38,23.2-56.6,35.4c-16.7,11-33.3,22.3-49.2,34.4c-13.9,10.7-27,22.5-40,34.2
		c-10.4,9.4-20.2,19.4-30,29.4c-7.2,7.4-14.1,15.1-20.8,22.9c-10.6,12.4-21.3,24.7-31.3,37.6c-7.5,9.7-14.2,20.1-20.9,30.4
		c-8.8,13.6-17.6,27.1-25.6,41.1c-6.3,11-11.3,22.6-16.8,34c-3.4,7-6.8,14-9.7,21.2c-5.8,14-11.3,28.2-16.9,42.2
		c-0.1,0.4-0.3,0.7-0.4,1.1c-4.1,16.2-8.2,32.4-12.2,48.6c-1.9,7.5-3.3,15.2-5.4,22.7c-0.5,1.6-3.2,2.6-4.9,3.8c-1-2-3.1-4.3-2.7-6
		c2.4-12.2,5.3-24.4,7.9-36.5c1-4.6,1.2-9.4,2.6-13.8c2.7-8.9,6-17.6,9.1-26.4c1.3-3.9,2.5-7.8,4-11.6c3.7-9.6,7.3-19.2,11.4-28.7
		c5.9-13.6,11.9-27.1,18.6-40.3c5.1-10,11.2-19.5,16.9-29.2c2.2-3.7,4.5-7.3,6.7-11c15.2-25.4,32.2-49.6,51.9-71.7
		c19.5-21.8,39.6-43,60.3-63.6c11.7-11.6,24.6-22.2,37.9-32c18.7-13.9,37.7-27.5,57.3-39.8c14.9-9.4,31.1-16.7,46.7-24.9
		c3.7-1.9,7.7-3.5,11.6-5.2C386.1,111.9,386.2,112.5,386.3,113.1z"/>
	<path class="st0" d="M949.3,1245.3c-4.7,2-9.5,4-14.2,6.1C937.6,1244.2,943.4,1244.6,949.3,1245.3z"/>
	<path class="st0" d="M405.7,105.5c-3.7,1.4-7.5,2.7-11.2,4.1c-0.2-0.6-0.5-1.2-0.7-1.9c3.6-1.7,7.1-3.4,10.7-5.2
		C404.8,103.6,405.3,104.6,405.7,105.5z"/>
	<path class="st0" d="M707.3,754.1c0.5-8,1.2-16.1,1.5-24.2c0.5-18,0.8-36,1.2-54c0.3-12,0.4-23.9,0.8-35.9
		c0.8-25.8,1.7-51.7,2.5-77.5c0.4-15.1,0.7-30.2,1.1-45.3c0.3-10.4,1-20.7,0.9-31.1c0-2.9-1.7-6.4-3.7-8.4
		c-5.1-5.1-11.1-9.3-16.4-14.2c-1.5-1.4-1.9-4.1-2.8-6.3c2.1-0.8,4.2-2.5,6.2-2.4c26.8,1.1,53.6,2.4,80.4,3.7c3,0.2,5.9,1,10.8,1.8
		c-4.3,4.4-7.2,7.6-10.4,10.5c-17.7,16.4-15,10-15.6,34.9c-1,43.5-2.5,86.9-3.8,130.4c-0.1,2.8-0.3,5.6-0.4,8.4
		c0.5,0.2,1,0.5,1.5,0.7c2.7-2.9,5.4-5.8,8-8.7c14.9-16.5,32.2-29.1,54.4-34c2.6-0.6,5.5-0.9,8.1-0.6c4.9,0.5,7.2-2,8.5-6.3
		c10.2-33.3,20.6-66.5,30.6-99.8c1.1-3.7,0.4-8,0.6-12c-4.5,0.1-9.4-0.7-13.5,0.6c-16.6,5.3-26.5,18-33.9,33c-0.6,1.2-1.3,2.3-2,3.5
		c-0.1,0.1-0.3,0-0.5,0c-7.7-33.2,13.2-54.7,42.5-55.8c25.2-0.9,50.4-0.9,75.7-1.2c8.3-0.1,11.4,3.2,12.7,11.5
		c3.2,21,6.7,42.1,10.1,63.1c3.8,23.9,7.5,47.8,11.4,71.6c4,24.3,8.4,48.5,12.4,72.8c3.4,20.8,6.5,41.6,9.8,62.4
		c4.7,29.1,9.2,58.2,14.4,87.2c0.6,3.2,4.9,6.1,8.1,8.5c3.9,3,8.3,5.4,12.2,9.1c-36.8,0.1-73.2,3.5-109.7,1.3
		c-0.2-0.7-0.4-1.4-0.7-2.1c4.2-2.6,8.3-5.2,12.5-7.8c0.8-0.5,1.8-0.7,2.7-1.2c16.4-9.2,16.4-9.8,14-29.5
		c-2.8-23.3-4.8-46.6-7.4-69.9c-2.2-20.2-4.7-40.3-7.5-60.4c-0.4-3-2.2-6.4-4.4-8.5c-14.7-14.3-32-24.4-51-31.8
		c-4-1.5-5.3-0.1-6.3,3.3c-5.2,17-10.4,34-15.5,51c-10.1,33.9-20.2,67.8-30.3,101.6c-3.6,12-7.1,23.9-10.6,35.9
		c-1.3,4.4-1.4,8,4.1,10.3c3.8,1.6,6.8,5.1,11.3,8.7c-2.8,0.2-4.5,0.5-6.2,0.4c-19.2-0.8-38.4-1.7-57.5-2.6
		c-23.7-1.1-47.3-2.4-71-3.2c-12.7-0.5-13-0.7-17-12.9C668,798,656.1,763,644.5,728c-11.4-34.3-22.6-68.7-34-103.1
		c-3.2-9.8-6.7-19.5-11.5-29.2c-0.5,1.7-1.3,3.4-1.3,5.1c-0.2,13.9-0.1,27.8-0.4,41.6c-0.4,17.6-1.1,35.2-1.5,52.8
		c-0.3,12.3-0.1,24.7-0.2,37c-0.2,23.7-0.6,47.5-0.7,71.2c-0.1,6.7,0,13.3,0.5,20c0.2,2.3,1.5,4.9,3.1,6.6c4,4,8.7,7.3,12.7,11.3
		c1.4,1.4,2.6,3.9,2.4,5.8c-0.1,1.1-3.2,2.6-5,2.6c-17.2-0.3-34.4-1.1-51.7-1.4c-9.6-0.2-19.1,0.4-28.7,0.3c-1.7,0-3.5-1.5-5.2-2.3
		c0.9-1.8,1.4-3.9,2.8-5.3c2-2.1,4.4-4.1,7-5.3c10-4.7,11.8-13,11.8-23.1c0.1-30.7,0.7-61.5,1.3-92.2c0.7-37,1.7-73.9,2.5-110.9
		c0.7-32.5,1.4-65,2.1-97.5c0.2-9.2-0.1-18.4,0.1-27.6c0.1-4.8-1.5-6.6-6.3-5c-9.9,3.4-18,9.5-24.5,17.6c-1,1.3-1.6,3.2-1.7,4.9
		c-0.4,9-0.5,18-0.8,26.9c-0.3,8.4-0.8,16.8-0.9,25.2c-0.3,23.9-0.3,47.8-0.5,71.7c-0.2,31.3-0.3,62.7-0.6,94
		c-0.2,26.2-0.1,52.4-1.3,78.6c-0.6,13.4-7.5,25-16.4,35c-12.9,14.5-28.8,20.5-48.4,17.9c-12.2-1.6-24.6-1.4-37-2
		c-16.6-0.9-33.3-1.3-49.8-2.9c-13-1.3-21.9-10.2-29.4-19.9c-8.6-11.1-12.7-23.8-12.4-38.3c0.6-32.7,0.3-65.5,0.6-98.2
		c0.2-34.3,0.8-68.7,1-103c0.2-26.8-0.7-53.7,0.4-80.5c0.5-10.8-3.2-17.7-10.7-24.2c-6.8-5.9-13.3-12.2-19.5-18.8
		c-1.9-2-3.5-5.7-3.1-8.3c0.7-4.2,4.9-4.3,8.5-4.1c26.6,1.4,53.2,2.8,79.8,4.2c1.6,0.1,3.1,0.3,4.7,0.5c11.6,1.4,11.8,1.5,11.8,13.1
		c-0.1,15.3-0.6,30.5-0.9,45.8c0,0.8-0.2,1.6,0,2.3c3.2,10.8-2.4,17.7-10.2,24c-15,12.1-14.7,12.2-14.9,31.3
		c-0.4,35.3-0.9,70.5-1.4,105.7c-0.4,26.6-1,53.2-0.9,79.8c0,9.7,1.6,19.4,8.4,27.3c11.8,13.9,27.5,17,44.6,16.4
		c9.2-0.3,17.9-2.9,25.3-8.3c9.9-7.2,13.6-17.4,13.7-29.6c0.1-24.4,0.7-48.8,1.4-73.3c0.3-12.7,1.3-25.3,1.6-38
		c0.6-23.8,1-47.7,1.6-71.5c0.2-6.6,1.1-13.3,0.8-19.9c-0.1-3-1.6-6.4-3.5-8.7c-4.6-5.6-9.5-11.1-15.1-15.7
		c-8.1-6.6-8.5-14.8-7.9-24.2c1-14.6,1.3-29.2,1.2-43.8c-0.1-10.2,1.8-12.6,12.3-12.3c18.6,0.5,37.1,0.8,55.7,1.1
		c27.9,0.4,55.7,0.8,83.6,1.1c16.3,0.1,15.9,0.2,21,15.7c11,33.4,22.4,66.7,33.7,100.1c8.9,26.3,17.8,52.6,26.7,78.9
		c7.5,22,14.9,44,22.4,66c3.9,11.3,7.8,22.5,11.8,33.8c0.2,0.5,0.6,0.9,0.9,1.4C706.1,754.1,706.7,754.1,707.3,754.1z M753.6,829.7
		c0,0,0.1,0,0.1,0c0,1.4-0.4,2.9,0.1,4.1c0.7,1.8,2.1,3.3,3.2,5c1.4-1.4,3.6-2.7,4.2-4.4c6.8-20,13.3-40,19.9-60
		c10-30.2,20.1-60.4,30.1-90.7c4.8-14.5,9.4-29,14.2-43.5c1.4-4.2,0.1-5.6-4-4.9c-2.1,0.4-4.3,0.7-6.3,1.4
		c-25.4,8.8-43.5,25.9-53.4,50.4c-3.9,9.5-3.3,21.1-3.8,31.7C756.1,755.8,754.9,792.7,753.6,829.7z M911.1,527.1
		c-0.7,0.1-1.3,0.2-2,0.3c-1.6,3.1-3.7,6-4.7,9.3c-6.3,20.5-12.4,41.2-18.7,61.7c-1.3,4.1,0,5.9,3.9,7.4c9.9,3.7,19.6,7.9,29.3,12
		c2,0.8,4,1.9,7,3.3c0-3.3,0.3-5.4,0-7.5c-3.8-26.5-7.7-53-11.7-79.4C913.8,531.7,912.1,529.4,911.1,527.1z"/>
</g>
</svg>
